M48
; DRILL file {KiCad 8.0.4} date 2024-08-28T23:33:59-0400
; FORMAT={-:-/ absolute / metric / decimal}
; #@! TF.CreationDate,2024-08-28T23:33:59-04:00
; #@! TF.GenerationSoftware,Kicad,Pcbnew,8.0.4
; #@! TF.FileFunction,Plated,1,2,PTH
FMAT,2
METRIC
; #@! TA.AperFunction,Plated,PTH,ViaDrill
T1C0.300
; #@! TA.AperFunction,Plated,PTH,ComponentDrill
T2C0.750
; #@! TA.AperFunction,Plated,PTH,ComponentDrill
T3C0.780
; #@! TA.AperFunction,Plated,PTH,ComponentDrill
T4C0.800
; #@! TA.AperFunction,Plated,PTH,ComponentDrill
T5C1.000
; #@! TA.AperFunction,Plated,PTH,ComponentDrill
T6C1.600
; #@! TA.AperFunction,Plated,PTH,ComponentDrill
T7C1.800
%
G90
G05
T1
X73.15Y-138.8
X77.1Y-142.7
X79.35Y-132.8
X80.5Y-120.05
X80.7Y-143.45
X81.5Y-83.7
X82.15Y-92.8
X85.0Y-109.0
X87.0Y-153.0
X87.13Y-75.28
X87.2Y-79.8
X91.35Y-112.8
X95.0Y-68.0
T2
X100.48Y-138.49
X100.56Y-144.84
X101.75Y-138.49
X101.83Y-144.84
X103.02Y-138.49
X103.1Y-144.84
X103.99Y-120.5
X105.26Y-120.5
X106.53Y-120.5
T3
X56.83Y-140.89
X56.83Y-143.43
X56.83Y-145.97
X56.83Y-148.51
X64.77Y-140.89
X64.77Y-143.43
X64.77Y-145.97
X64.77Y-148.51
X75.01Y-107.38
X75.01Y-109.92
X75.01Y-112.46
X75.01Y-115.0
X75.28Y-140.89
X75.28Y-143.43
X75.28Y-145.97
X75.28Y-148.51
X82.95Y-107.38
X82.95Y-109.92
X82.95Y-112.46
X82.95Y-115.0
X83.22Y-140.89
X83.22Y-143.43
X83.22Y-145.97
X83.22Y-148.51
T4
X70.15Y-142.99
X70.15Y-153.15
X70.15Y-156.82
X70.15Y-166.98
X70.45Y-64.22
X70.45Y-74.38
X72.55Y-85.32
X72.55Y-95.48
X72.77Y-101.55
X74.9Y-79.05
X76.0Y-65.29
X76.0Y-72.91
X77.45Y-86.39
X77.45Y-94.01
X79.9Y-79.05
X82.93Y-101.55
X84.13Y-72.38
X84.13Y-74.92
X84.13Y-77.46
X84.13Y-80.0
X85.1Y-68.45
X86.97Y-140.95
X86.97Y-145.74
X87.12Y-150.5
X88.1Y-84.8
X88.2Y-104.35
X88.23Y-89.688
X88.23Y-94.575
X88.23Y-99.462
X89.17Y-159.7
X89.47Y-164.7
X89.65Y-118.47
X89.65Y-128.63
X90.1Y-68.45
X91.56Y-109.24
X91.75Y-72.38
X91.75Y-74.92
X91.75Y-77.46
X91.75Y-80.0
X93.1Y-84.8
X93.2Y-104.35
X93.23Y-89.688
X93.23Y-94.575
X93.23Y-99.462
X94.25Y-119.84
X94.25Y-127.46
X96.26Y-132.19
X96.26Y-137.19
X96.35Y-84.8
X96.4Y-89.662
X96.4Y-94.525
X96.4Y-99.387
X96.4Y-104.25
X96.52Y-115.1
X97.13Y-140.95
X97.13Y-145.74
X97.28Y-150.5
X99.18Y-109.24
X99.33Y-159.7
X99.57Y-150.5
X99.63Y-164.7
X100.76Y-124.96
X100.76Y-135.12
X101.35Y-84.8
X101.4Y-89.662
X101.4Y-94.525
X101.4Y-99.387
X101.4Y-104.25
X105.28Y-125.29
X105.28Y-132.91
X106.68Y-115.1
X107.19Y-150.5
X107.66Y-136.76
X107.66Y-146.92
T5
X52.75Y-143.45
X58.4Y-75.312
X58.4Y-95.475
X58.4Y-115.637
X58.4Y-135.8
X60.9Y-75.312
X60.9Y-95.475
X60.9Y-115.637
X60.9Y-135.8
X63.4Y-75.312
X63.4Y-95.475
X63.4Y-115.637
X63.4Y-135.8
X76.6Y-135.8
X79.1Y-135.8
X81.6Y-135.8
X82.6Y-61.05
X87.062Y-61.05
X87.65Y-112.7
X91.525Y-61.05
X95.987Y-61.05
X97.66Y-69.59
X97.66Y-72.13
X97.66Y-74.67
X97.66Y-77.21
X97.66Y-79.75
X100.2Y-69.59
X100.2Y-72.13
X100.2Y-74.67
X100.2Y-77.21
X100.2Y-79.75
X100.45Y-61.05
X103.35Y-164.75
T6
X60.9Y-153.78
X60.9Y-162.08
X60.9Y-165.18
X79.1Y-153.78
X79.1Y-162.08
X79.1Y-165.18
T7
X56.1Y-67.812
X56.1Y-87.975
X56.1Y-108.137
X56.1Y-128.3
X65.7Y-67.812
X65.7Y-87.975
X65.7Y-108.137
X65.7Y-128.3
X74.3Y-128.3
X83.9Y-128.3
M30
