G04 #@! TF.GenerationSoftware,KiCad,Pcbnew,8.0.4*
G04 #@! TF.CreationDate,2024-09-30T00:25:37-04:00*
G04 #@! TF.ProjectId,AK_test,414b5f74-6573-4742-9e6b-696361645f70,rev?*
G04 #@! TF.SameCoordinates,Original*
G04 #@! TF.FileFunction,Soldermask,Top*
G04 #@! TF.FilePolarity,Negative*
%FSLAX46Y46*%
G04 Gerber Fmt 4.6, Leading zero omitted, Abs format (unit mm)*
G04 Created by KiCad (PCBNEW 8.0.4) date 2024-09-30 00:25:37*
%MOMM*%
%LPD*%
G01*
G04 APERTURE LIST*
%ADD10R,0.812800X0.254000*%
%ADD11R,0.254000X0.812800*%
%ADD12R,5.105400X5.105400*%
G04 APERTURE END LIST*
D10*
X117045600Y-64999307D03*
X117045600Y-65499433D03*
X117045600Y-65999559D03*
X117045600Y-66499685D03*
X117045600Y-66999811D03*
X117045600Y-67499937D03*
X117045600Y-68000063D03*
X117045600Y-68500189D03*
X117045600Y-69000315D03*
X117045600Y-69500441D03*
X117045600Y-70000567D03*
X117045600Y-70500693D03*
D11*
X117749307Y-71204400D03*
X118249433Y-71204400D03*
X118749559Y-71204400D03*
X119249685Y-71204400D03*
X119749811Y-71204400D03*
X120249937Y-71204400D03*
X120750063Y-71204400D03*
X121250189Y-71204400D03*
X121750315Y-71204400D03*
X122250441Y-71204400D03*
X122750567Y-71204400D03*
X123250693Y-71204400D03*
D10*
X123954400Y-70500693D03*
X123954400Y-70000567D03*
X123954400Y-69500441D03*
X123954400Y-69000315D03*
X123954400Y-68500189D03*
X123954400Y-68000063D03*
X123954400Y-67499937D03*
X123954400Y-66999811D03*
X123954400Y-66499685D03*
X123954400Y-65999559D03*
X123954400Y-65499433D03*
X123954400Y-64999307D03*
D11*
X123250693Y-64295600D03*
X122750567Y-64295600D03*
X122250441Y-64295600D03*
X121750315Y-64295600D03*
X121250189Y-64295600D03*
X120750063Y-64295600D03*
X120249937Y-64295600D03*
X119749811Y-64295600D03*
X119249685Y-64295600D03*
X118749559Y-64295600D03*
X118249433Y-64295600D03*
X117749307Y-64295600D03*
D12*
X120500000Y-67750000D03*
M02*
