G04 #@! TF.GenerationSoftware,KiCad,Pcbnew,8.0.4*
G04 #@! TF.CreationDate,2024-09-30T00:25:37-04:00*
G04 #@! TF.ProjectId,AK_test,414b5f74-6573-4742-9e6b-696361645f70,rev?*
G04 #@! TF.SameCoordinates,Original*
G04 #@! TF.FileFunction,Legend,Top*
G04 #@! TF.FilePolarity,Positive*
%FSLAX46Y46*%
G04 Gerber Fmt 4.6, Leading zero omitted, Abs format (unit mm)*
G04 Created by KiCad (PCBNEW 8.0.4) date 2024-09-30 00:25:37*
%MOMM*%
%LPD*%
G01*
G04 APERTURE LIST*
%ADD10C,0.152400*%
%ADD11C,0.000000*%
%ADD12R,0.812800X0.254000*%
%ADD13R,0.254000X0.812800*%
%ADD14R,5.105400X5.105400*%
G04 APERTURE END LIST*
D10*
X116817000Y-64067000D02*
X116817000Y-64539567D01*
X116817000Y-70960433D02*
X116817000Y-71433000D01*
X116817000Y-71433000D02*
X117289567Y-71433000D01*
X117289567Y-64067000D02*
X116817000Y-64067000D01*
X123710433Y-71433000D02*
X124183000Y-71433000D01*
X124183000Y-64067000D02*
X123710433Y-64067000D01*
X124183000Y-64539567D02*
X124183000Y-64067000D01*
X124183000Y-71433000D02*
X124183000Y-70960433D01*
D11*
G36*
X116385200Y-69690941D02*
G01*
X116131200Y-69690941D01*
X116131200Y-69309941D01*
X116385200Y-69309941D01*
X116385200Y-69690941D01*
G37*
G36*
X121440689Y-72118800D02*
G01*
X121059689Y-72118800D01*
X121059689Y-71864800D01*
X121440689Y-71864800D01*
X121440689Y-72118800D01*
G37*
G36*
X121940815Y-63635200D02*
G01*
X121559815Y-63635200D01*
X121559815Y-63381200D01*
X121940815Y-63381200D01*
X121940815Y-63635200D01*
G37*
G36*
X124868800Y-68190563D02*
G01*
X124614800Y-68190563D01*
X124614800Y-67809563D01*
X124868800Y-67809563D01*
X124868800Y-68190563D01*
G37*
%LPC*%
D12*
X117045600Y-64999307D03*
X117045600Y-65499433D03*
X117045600Y-65999559D03*
X117045600Y-66499685D03*
X117045600Y-66999811D03*
X117045600Y-67499937D03*
X117045600Y-68000063D03*
X117045600Y-68500189D03*
X117045600Y-69000315D03*
X117045600Y-69500441D03*
X117045600Y-70000567D03*
X117045600Y-70500693D03*
D13*
X117749307Y-71204400D03*
X118249433Y-71204400D03*
X118749559Y-71204400D03*
X119249685Y-71204400D03*
X119749811Y-71204400D03*
X120249937Y-71204400D03*
X120750063Y-71204400D03*
X121250189Y-71204400D03*
X121750315Y-71204400D03*
X122250441Y-71204400D03*
X122750567Y-71204400D03*
X123250693Y-71204400D03*
D12*
X123954400Y-70500693D03*
X123954400Y-70000567D03*
X123954400Y-69500441D03*
X123954400Y-69000315D03*
X123954400Y-68500189D03*
X123954400Y-68000063D03*
X123954400Y-67499937D03*
X123954400Y-66999811D03*
X123954400Y-66499685D03*
X123954400Y-65999559D03*
X123954400Y-65499433D03*
X123954400Y-64999307D03*
D13*
X123250693Y-64295600D03*
X122750567Y-64295600D03*
X122250441Y-64295600D03*
X121750315Y-64295600D03*
X121250189Y-64295600D03*
X120750063Y-64295600D03*
X120249937Y-64295600D03*
X119749811Y-64295600D03*
X119249685Y-64295600D03*
X118749559Y-64295600D03*
X118249433Y-64295600D03*
X117749307Y-64295600D03*
D14*
X120500000Y-67750000D03*
%LPD*%
M02*
