G04 #@! TF.GenerationSoftware,KiCad,Pcbnew,8.0.4*
G04 #@! TF.CreationDate,2024-09-30T00:25:36-04:00*
G04 #@! TF.ProjectId,AK_test,414b5f74-6573-4742-9e6b-696361645f70,rev?*
G04 #@! TF.SameCoordinates,Original*
G04 #@! TF.FileFunction,Copper,L1,Top*
G04 #@! TF.FilePolarity,Positive*
%FSLAX46Y46*%
G04 Gerber Fmt 4.6, Leading zero omitted, Abs format (unit mm)*
G04 Created by KiCad (PCBNEW 8.0.4) date 2024-09-30 00:25:36*
%MOMM*%
%LPD*%
G01*
G04 APERTURE LIST*
G04 #@! TA.AperFunction,SMDPad,CuDef*
%ADD10R,0.812800X0.254000*%
G04 #@! TD*
G04 #@! TA.AperFunction,SMDPad,CuDef*
%ADD11R,0.254000X0.812800*%
G04 #@! TD*
G04 #@! TA.AperFunction,SMDPad,CuDef*
%ADD12R,5.105400X5.105400*%
G04 #@! TD*
G04 APERTURE END LIST*
D10*
X117045600Y-64999307D03*
X117045600Y-65499433D03*
X117045600Y-65999559D03*
X117045600Y-66499685D03*
X117045600Y-66999811D03*
X117045600Y-67499937D03*
X117045600Y-68000063D03*
X117045600Y-68500189D03*
X117045600Y-69000315D03*
X117045600Y-69500441D03*
X117045600Y-70000567D03*
X117045600Y-70500693D03*
D11*
X117749307Y-71204400D03*
X118249433Y-71204400D03*
X118749559Y-71204400D03*
X119249685Y-71204400D03*
X119749811Y-71204400D03*
X120249937Y-71204400D03*
X120750063Y-71204400D03*
X121250189Y-71204400D03*
X121750315Y-71204400D03*
X122250441Y-71204400D03*
X122750567Y-71204400D03*
X123250693Y-71204400D03*
D10*
X123954400Y-70500693D03*
X123954400Y-70000567D03*
X123954400Y-69500441D03*
X123954400Y-69000315D03*
X123954400Y-68500189D03*
X123954400Y-68000063D03*
X123954400Y-67499937D03*
X123954400Y-66999811D03*
X123954400Y-66499685D03*
X123954400Y-65999559D03*
X123954400Y-65499433D03*
X123954400Y-64999307D03*
D11*
X123250693Y-64295600D03*
X122750567Y-64295600D03*
X122250441Y-64295600D03*
X121750315Y-64295600D03*
X121250189Y-64295600D03*
X120750063Y-64295600D03*
X120249937Y-64295600D03*
X119749811Y-64295600D03*
X119249685Y-64295600D03*
X118749559Y-64295600D03*
X118249433Y-64295600D03*
X117749307Y-64295600D03*
D12*
X120500000Y-67750000D03*
G04 #@! TA.AperFunction,NonConductor*
G36*
X126692539Y-61520185D02*
G01*
X126738294Y-61572989D01*
X126749500Y-61624500D01*
X126749500Y-73875500D01*
X126729815Y-73942539D01*
X126677011Y-73988294D01*
X126625500Y-73999500D01*
X114374500Y-73999500D01*
X114307461Y-73979815D01*
X114261706Y-73927011D01*
X114250500Y-73875500D01*
X114250500Y-64824434D01*
X116138700Y-64824434D01*
X116138700Y-64824441D01*
X116138700Y-64824442D01*
X116138700Y-65174176D01*
X116138701Y-65174183D01*
X116145359Y-65236120D01*
X116145359Y-65262627D01*
X116145109Y-65264949D01*
X116145109Y-65264950D01*
X116138700Y-65324560D01*
X116138700Y-65324563D01*
X116138700Y-65324566D01*
X116138700Y-65674302D01*
X116138701Y-65674309D01*
X116145359Y-65736246D01*
X116145359Y-65762753D01*
X116145109Y-65765075D01*
X116145109Y-65765076D01*
X116138700Y-65824686D01*
X116138700Y-65824689D01*
X116138700Y-65824692D01*
X116138700Y-66174428D01*
X116138701Y-66174435D01*
X116145359Y-66236372D01*
X116145359Y-66262879D01*
X116145109Y-66265201D01*
X116145109Y-66265202D01*
X116138700Y-66324812D01*
X116138700Y-66324815D01*
X116138700Y-66324818D01*
X116138700Y-66674554D01*
X116138701Y-66674561D01*
X116145359Y-66736498D01*
X116145359Y-66763005D01*
X116145109Y-66765327D01*
X116145109Y-66765328D01*
X116138700Y-66824938D01*
X116138700Y-66824941D01*
X116138700Y-66824944D01*
X116138700Y-67174680D01*
X116138701Y-67174687D01*
X116145359Y-67236624D01*
X116145359Y-67263131D01*
X116145109Y-67265453D01*
X116145109Y-67265454D01*
X116138700Y-67325064D01*
X116138700Y-67325067D01*
X116138700Y-67325070D01*
X116138700Y-67674806D01*
X116138701Y-67674813D01*
X116145359Y-67736750D01*
X116145359Y-67763257D01*
X116145109Y-67765579D01*
X116145109Y-67765580D01*
X116138700Y-67825190D01*
X116138700Y-67825193D01*
X116138700Y-67825196D01*
X116138700Y-68174932D01*
X116138701Y-68174939D01*
X116145359Y-68236876D01*
X116145359Y-68263383D01*
X116145109Y-68265705D01*
X116145109Y-68265706D01*
X116138700Y-68325316D01*
X116138700Y-68325319D01*
X116138700Y-68325322D01*
X116138700Y-68675058D01*
X116138701Y-68675065D01*
X116145359Y-68737002D01*
X116145359Y-68763509D01*
X116145109Y-68765831D01*
X116145109Y-68765832D01*
X116138700Y-68825442D01*
X116138700Y-68825445D01*
X116138700Y-68825448D01*
X116138700Y-69175184D01*
X116138701Y-69175191D01*
X116145359Y-69237128D01*
X116145359Y-69263635D01*
X116145109Y-69265957D01*
X116145109Y-69265958D01*
X116138700Y-69325568D01*
X116138700Y-69325571D01*
X116138700Y-69325574D01*
X116138700Y-69675310D01*
X116138701Y-69675317D01*
X116145359Y-69737254D01*
X116145359Y-69763761D01*
X116145109Y-69766083D01*
X116145109Y-69766084D01*
X116138700Y-69825694D01*
X116138700Y-69825697D01*
X116138700Y-69825700D01*
X116138700Y-70175436D01*
X116138701Y-70175443D01*
X116145359Y-70237380D01*
X116145359Y-70263887D01*
X116145109Y-70266209D01*
X116145109Y-70266210D01*
X116138700Y-70325820D01*
X116138700Y-70325823D01*
X116138700Y-70325826D01*
X116138700Y-70675562D01*
X116138701Y-70675569D01*
X116145108Y-70735176D01*
X116195402Y-70870021D01*
X116195406Y-70870028D01*
X116281652Y-70985237D01*
X116281655Y-70985240D01*
X116396864Y-71071486D01*
X116396871Y-71071490D01*
X116441818Y-71088254D01*
X116531717Y-71121784D01*
X116591327Y-71128193D01*
X116997807Y-71128192D01*
X117064846Y-71147876D01*
X117110601Y-71200680D01*
X117121807Y-71252192D01*
X117121807Y-71658670D01*
X117121808Y-71658676D01*
X117128215Y-71718283D01*
X117178509Y-71853128D01*
X117178513Y-71853135D01*
X117264759Y-71968344D01*
X117264762Y-71968347D01*
X117379971Y-72054593D01*
X117379978Y-72054597D01*
X117424925Y-72071361D01*
X117514824Y-72104891D01*
X117574434Y-72111300D01*
X117924179Y-72111299D01*
X117983790Y-72104891D01*
X117983792Y-72104889D01*
X117986118Y-72104640D01*
X118012629Y-72104641D01*
X118014948Y-72104890D01*
X118014950Y-72104891D01*
X118074560Y-72111300D01*
X118424305Y-72111299D01*
X118483916Y-72104891D01*
X118483918Y-72104889D01*
X118486244Y-72104640D01*
X118512755Y-72104641D01*
X118515074Y-72104890D01*
X118515076Y-72104891D01*
X118574686Y-72111300D01*
X118924431Y-72111299D01*
X118984042Y-72104891D01*
X118984044Y-72104889D01*
X118986370Y-72104640D01*
X119012881Y-72104641D01*
X119015200Y-72104890D01*
X119015202Y-72104891D01*
X119074812Y-72111300D01*
X119424557Y-72111299D01*
X119484168Y-72104891D01*
X119484170Y-72104889D01*
X119486496Y-72104640D01*
X119513007Y-72104641D01*
X119515326Y-72104890D01*
X119515328Y-72104891D01*
X119574938Y-72111300D01*
X119924683Y-72111299D01*
X119984294Y-72104891D01*
X119984296Y-72104889D01*
X119986622Y-72104640D01*
X120013133Y-72104641D01*
X120015452Y-72104890D01*
X120015454Y-72104891D01*
X120075064Y-72111300D01*
X120424809Y-72111299D01*
X120484420Y-72104891D01*
X120484422Y-72104889D01*
X120486748Y-72104640D01*
X120513259Y-72104641D01*
X120515578Y-72104890D01*
X120515580Y-72104891D01*
X120575190Y-72111300D01*
X120924935Y-72111299D01*
X120984546Y-72104891D01*
X120984548Y-72104889D01*
X120986874Y-72104640D01*
X121013385Y-72104641D01*
X121015704Y-72104890D01*
X121015706Y-72104891D01*
X121075316Y-72111300D01*
X121425061Y-72111299D01*
X121484672Y-72104891D01*
X121484674Y-72104889D01*
X121487000Y-72104640D01*
X121513511Y-72104641D01*
X121515830Y-72104890D01*
X121515832Y-72104891D01*
X121575442Y-72111300D01*
X121925187Y-72111299D01*
X121984798Y-72104891D01*
X121984800Y-72104889D01*
X121987126Y-72104640D01*
X122013637Y-72104641D01*
X122015956Y-72104890D01*
X122015958Y-72104891D01*
X122075568Y-72111300D01*
X122425313Y-72111299D01*
X122484924Y-72104891D01*
X122484926Y-72104889D01*
X122487252Y-72104640D01*
X122513763Y-72104641D01*
X122516082Y-72104890D01*
X122516084Y-72104891D01*
X122575694Y-72111300D01*
X122925439Y-72111299D01*
X122985050Y-72104891D01*
X122985052Y-72104889D01*
X122987378Y-72104640D01*
X123013889Y-72104641D01*
X123016208Y-72104890D01*
X123016210Y-72104891D01*
X123075820Y-72111300D01*
X123425565Y-72111299D01*
X123485176Y-72104891D01*
X123620024Y-72054596D01*
X123735239Y-71968346D01*
X123821489Y-71853131D01*
X123871784Y-71718283D01*
X123878193Y-71658673D01*
X123878192Y-71252191D01*
X123897876Y-71185153D01*
X123950680Y-71139398D01*
X124002192Y-71128192D01*
X124408671Y-71128192D01*
X124408672Y-71128192D01*
X124468283Y-71121784D01*
X124603131Y-71071489D01*
X124718346Y-70985239D01*
X124804596Y-70870024D01*
X124854891Y-70735176D01*
X124861300Y-70675566D01*
X124861299Y-70325821D01*
X124854891Y-70266210D01*
X124854890Y-70266207D01*
X124854640Y-70263880D01*
X124854641Y-70237370D01*
X124854890Y-70235052D01*
X124854891Y-70235050D01*
X124861300Y-70175440D01*
X124861299Y-69825695D01*
X124854891Y-69766084D01*
X124854890Y-69766081D01*
X124854640Y-69763754D01*
X124854641Y-69737244D01*
X124854890Y-69734926D01*
X124854891Y-69734924D01*
X124861300Y-69675314D01*
X124861299Y-69325569D01*
X124854891Y-69265958D01*
X124854890Y-69265955D01*
X124854640Y-69263628D01*
X124854641Y-69237118D01*
X124854890Y-69234800D01*
X124854891Y-69234798D01*
X124861300Y-69175188D01*
X124861299Y-68825443D01*
X124854891Y-68765832D01*
X124854890Y-68765829D01*
X124854640Y-68763502D01*
X124854641Y-68736992D01*
X124854890Y-68734674D01*
X124854891Y-68734672D01*
X124861300Y-68675062D01*
X124861299Y-68325317D01*
X124854891Y-68265706D01*
X124854890Y-68265703D01*
X124854640Y-68263376D01*
X124854641Y-68236866D01*
X124854890Y-68234548D01*
X124854891Y-68234546D01*
X124861300Y-68174936D01*
X124861299Y-67825191D01*
X124854891Y-67765580D01*
X124854890Y-67765577D01*
X124854640Y-67763250D01*
X124854641Y-67736740D01*
X124854890Y-67734422D01*
X124854891Y-67734420D01*
X124861300Y-67674810D01*
X124861299Y-67325065D01*
X124854891Y-67265454D01*
X124854890Y-67265451D01*
X124854640Y-67263124D01*
X124854641Y-67236614D01*
X124854890Y-67234296D01*
X124854891Y-67234294D01*
X124861300Y-67174684D01*
X124861299Y-66824939D01*
X124854891Y-66765328D01*
X124854890Y-66765325D01*
X124854640Y-66762998D01*
X124854641Y-66736488D01*
X124854890Y-66734170D01*
X124854891Y-66734168D01*
X124861300Y-66674558D01*
X124861299Y-66324813D01*
X124854891Y-66265202D01*
X124854890Y-66265199D01*
X124854640Y-66262872D01*
X124854641Y-66236362D01*
X124854890Y-66234044D01*
X124854891Y-66234042D01*
X124861300Y-66174432D01*
X124861299Y-65824687D01*
X124854891Y-65765076D01*
X124854890Y-65765073D01*
X124854640Y-65762746D01*
X124854641Y-65736236D01*
X124854890Y-65733918D01*
X124854891Y-65733916D01*
X124861300Y-65674306D01*
X124861299Y-65324561D01*
X124854891Y-65264950D01*
X124854890Y-65264947D01*
X124854640Y-65262620D01*
X124854641Y-65236110D01*
X124854890Y-65233792D01*
X124854891Y-65233790D01*
X124861300Y-65174180D01*
X124861299Y-64824435D01*
X124854891Y-64764824D01*
X124804596Y-64629976D01*
X124804595Y-64629975D01*
X124804593Y-64629971D01*
X124718347Y-64514762D01*
X124718344Y-64514759D01*
X124603135Y-64428513D01*
X124603128Y-64428509D01*
X124468282Y-64378215D01*
X124468283Y-64378215D01*
X124408683Y-64371808D01*
X124408681Y-64371807D01*
X124408673Y-64371807D01*
X124408665Y-64371807D01*
X124002192Y-64371807D01*
X123935153Y-64352122D01*
X123889398Y-64299318D01*
X123878192Y-64247807D01*
X123878192Y-63841329D01*
X123878191Y-63841323D01*
X123878190Y-63841316D01*
X123871784Y-63781717D01*
X123821489Y-63646869D01*
X123821488Y-63646868D01*
X123821486Y-63646864D01*
X123735240Y-63531655D01*
X123735237Y-63531652D01*
X123620028Y-63445406D01*
X123620021Y-63445402D01*
X123485179Y-63395110D01*
X123485178Y-63395109D01*
X123485176Y-63395109D01*
X123425566Y-63388700D01*
X123425556Y-63388700D01*
X123075823Y-63388700D01*
X123075813Y-63388701D01*
X123013878Y-63395359D01*
X122987372Y-63395359D01*
X122985051Y-63395109D01*
X122985050Y-63395109D01*
X122925440Y-63388700D01*
X122925431Y-63388700D01*
X122575697Y-63388700D01*
X122575687Y-63388701D01*
X122513752Y-63395359D01*
X122487246Y-63395359D01*
X122484925Y-63395109D01*
X122484924Y-63395109D01*
X122425314Y-63388700D01*
X122425305Y-63388700D01*
X122075571Y-63388700D01*
X122075561Y-63388701D01*
X122013626Y-63395359D01*
X121987120Y-63395359D01*
X121984799Y-63395109D01*
X121984798Y-63395109D01*
X121925188Y-63388700D01*
X121925179Y-63388700D01*
X121575445Y-63388700D01*
X121575435Y-63388701D01*
X121513500Y-63395359D01*
X121486994Y-63395359D01*
X121484673Y-63395109D01*
X121484672Y-63395109D01*
X121425062Y-63388700D01*
X121425053Y-63388700D01*
X121075319Y-63388700D01*
X121075309Y-63388701D01*
X121013374Y-63395359D01*
X120986868Y-63395359D01*
X120984547Y-63395109D01*
X120984546Y-63395109D01*
X120924936Y-63388700D01*
X120924927Y-63388700D01*
X120575193Y-63388700D01*
X120575183Y-63388701D01*
X120513248Y-63395359D01*
X120486742Y-63395359D01*
X120484421Y-63395109D01*
X120484420Y-63395109D01*
X120424810Y-63388700D01*
X120424801Y-63388700D01*
X120075067Y-63388700D01*
X120075057Y-63388701D01*
X120013122Y-63395359D01*
X119986616Y-63395359D01*
X119984295Y-63395109D01*
X119984294Y-63395109D01*
X119924684Y-63388700D01*
X119924675Y-63388700D01*
X119574941Y-63388700D01*
X119574931Y-63388701D01*
X119512996Y-63395359D01*
X119486490Y-63395359D01*
X119484169Y-63395109D01*
X119484168Y-63395109D01*
X119424558Y-63388700D01*
X119424549Y-63388700D01*
X119074815Y-63388700D01*
X119074805Y-63388701D01*
X119012870Y-63395359D01*
X118986364Y-63395359D01*
X118984043Y-63395109D01*
X118984042Y-63395109D01*
X118924432Y-63388700D01*
X118924423Y-63388700D01*
X118574689Y-63388700D01*
X118574679Y-63388701D01*
X118512744Y-63395359D01*
X118486238Y-63395359D01*
X118483917Y-63395109D01*
X118483916Y-63395109D01*
X118424306Y-63388700D01*
X118424297Y-63388700D01*
X118074563Y-63388700D01*
X118074553Y-63388701D01*
X118012618Y-63395359D01*
X117986112Y-63395359D01*
X117983791Y-63395109D01*
X117983790Y-63395109D01*
X117924180Y-63388700D01*
X117924171Y-63388700D01*
X117574437Y-63388700D01*
X117574430Y-63388701D01*
X117514823Y-63395108D01*
X117379978Y-63445402D01*
X117379971Y-63445406D01*
X117264762Y-63531652D01*
X117264759Y-63531655D01*
X117178513Y-63646864D01*
X117178509Y-63646871D01*
X117128215Y-63781717D01*
X117121808Y-63841316D01*
X117121808Y-63841323D01*
X117121807Y-63841335D01*
X117121807Y-64247807D01*
X117102122Y-64314846D01*
X117049318Y-64360601D01*
X116997807Y-64371807D01*
X116591329Y-64371807D01*
X116591323Y-64371808D01*
X116531716Y-64378215D01*
X116396871Y-64428509D01*
X116396864Y-64428513D01*
X116281655Y-64514759D01*
X116281652Y-64514762D01*
X116195406Y-64629971D01*
X116195402Y-64629978D01*
X116145110Y-64764820D01*
X116145109Y-64764824D01*
X116138700Y-64824434D01*
X114250500Y-64824434D01*
X114250500Y-61624500D01*
X114270185Y-61557461D01*
X114322989Y-61511706D01*
X114374500Y-61500500D01*
X126625500Y-61500500D01*
X126692539Y-61520185D01*
G37*
G04 #@! TD.AperFunction*
M02*
