%TF.GenerationSoftware,KiCad,Pcbnew,8.0.4*%
%TF.CreationDate,2024-09-30T00:27:13-04:00*%
%TF.ProjectId,AK_test,414b5f74-6573-4742-9e6b-696361645f70,rev?*%
%TF.SameCoordinates,Original*%
%TF.FileFunction,Drillmap*%
%TF.FilePolarity,Positive*%
%FSLAX45Y45*%
G04 Gerber Fmt 4.5, Leading zero omitted, Abs format (unit mm)*
G04 Created by KiCad (PCBNEW 8.0.4) date 2024-09-30 00:27:13*
%MOMM*%
%LPD*%
G01*
G04 APERTURE LIST*
%ADD10C,0.050000*%
%ADD11C,0.200000*%
G04 APERTURE END LIST*
D10*
X11375000Y-6100000D02*
X12725000Y-6100000D01*
X12725000Y-7450000D01*
X11375000Y-7450000D01*
X11375000Y-6100000D01*
D11*
X11633277Y-7763984D02*
X11633277Y-7563984D01*
X11633277Y-7563984D02*
X11680896Y-7563984D01*
X11680896Y-7563984D02*
X11709467Y-7573508D01*
X11709467Y-7573508D02*
X11728515Y-7592555D01*
X11728515Y-7592555D02*
X11738039Y-7611603D01*
X11738039Y-7611603D02*
X11747562Y-7649698D01*
X11747562Y-7649698D02*
X11747562Y-7678269D01*
X11747562Y-7678269D02*
X11738039Y-7716365D01*
X11738039Y-7716365D02*
X11728515Y-7735412D01*
X11728515Y-7735412D02*
X11709467Y-7754460D01*
X11709467Y-7754460D02*
X11680896Y-7763984D01*
X11680896Y-7763984D02*
X11633277Y-7763984D01*
X11833277Y-7763984D02*
X11833277Y-7630650D01*
X11833277Y-7668746D02*
X11842801Y-7649698D01*
X11842801Y-7649698D02*
X11852324Y-7640174D01*
X11852324Y-7640174D02*
X11871372Y-7630650D01*
X11871372Y-7630650D02*
X11890420Y-7630650D01*
X11957086Y-7763984D02*
X11957086Y-7630650D01*
X11957086Y-7563984D02*
X11947562Y-7573508D01*
X11947562Y-7573508D02*
X11957086Y-7583031D01*
X11957086Y-7583031D02*
X11966610Y-7573508D01*
X11966610Y-7573508D02*
X11957086Y-7563984D01*
X11957086Y-7563984D02*
X11957086Y-7583031D01*
X12080896Y-7763984D02*
X12061848Y-7754460D01*
X12061848Y-7754460D02*
X12052324Y-7735412D01*
X12052324Y-7735412D02*
X12052324Y-7563984D01*
X12185658Y-7763984D02*
X12166610Y-7754460D01*
X12166610Y-7754460D02*
X12157086Y-7735412D01*
X12157086Y-7735412D02*
X12157086Y-7563984D01*
X12414229Y-7763984D02*
X12414229Y-7563984D01*
X12414229Y-7563984D02*
X12480896Y-7706841D01*
X12480896Y-7706841D02*
X12547562Y-7563984D01*
X12547562Y-7563984D02*
X12547562Y-7763984D01*
X12728515Y-7763984D02*
X12728515Y-7659222D01*
X12728515Y-7659222D02*
X12718991Y-7640174D01*
X12718991Y-7640174D02*
X12699943Y-7630650D01*
X12699943Y-7630650D02*
X12661848Y-7630650D01*
X12661848Y-7630650D02*
X12642801Y-7640174D01*
X12728515Y-7754460D02*
X12709467Y-7763984D01*
X12709467Y-7763984D02*
X12661848Y-7763984D01*
X12661848Y-7763984D02*
X12642801Y-7754460D01*
X12642801Y-7754460D02*
X12633277Y-7735412D01*
X12633277Y-7735412D02*
X12633277Y-7716365D01*
X12633277Y-7716365D02*
X12642801Y-7697317D01*
X12642801Y-7697317D02*
X12661848Y-7687793D01*
X12661848Y-7687793D02*
X12709467Y-7687793D01*
X12709467Y-7687793D02*
X12728515Y-7678269D01*
X12823753Y-7630650D02*
X12823753Y-7830650D01*
X12823753Y-7640174D02*
X12842801Y-7630650D01*
X12842801Y-7630650D02*
X12880896Y-7630650D01*
X12880896Y-7630650D02*
X12899943Y-7640174D01*
X12899943Y-7640174D02*
X12909467Y-7649698D01*
X12909467Y-7649698D02*
X12918991Y-7668746D01*
X12918991Y-7668746D02*
X12918991Y-7725888D01*
X12918991Y-7725888D02*
X12909467Y-7744936D01*
X12909467Y-7744936D02*
X12899943Y-7754460D01*
X12899943Y-7754460D02*
X12880896Y-7763984D01*
X12880896Y-7763984D02*
X12842801Y-7763984D01*
X12842801Y-7763984D02*
X12823753Y-7754460D01*
X13004705Y-7744936D02*
X13014229Y-7754460D01*
X13014229Y-7754460D02*
X13004705Y-7763984D01*
X13004705Y-7763984D02*
X12995182Y-7754460D01*
X12995182Y-7754460D02*
X13004705Y-7744936D01*
X13004705Y-7744936D02*
X13004705Y-7763984D01*
X13004705Y-7640174D02*
X13014229Y-7649698D01*
X13014229Y-7649698D02*
X13004705Y-7659222D01*
X13004705Y-7659222D02*
X12995182Y-7649698D01*
X12995182Y-7649698D02*
X13004705Y-7640174D01*
X13004705Y-7640174D02*
X13004705Y-7659222D01*
M02*
