%TF.GenerationSoftware,KiCad,Pcbnew,8.0.4*%
%TF.CreationDate,2024-08-29T01:46:08-04:00*%
%TF.ProjectId,adsr,61647372-2e6b-4696-9361-645f70636258,rev?*%
%TF.SameCoordinates,Original*%
%TF.FileFunction,Legend,Bot*%
%TF.FilePolarity,Positive*%
%FSLAX46Y46*%
G04 Gerber Fmt 4.6, Leading zero omitted, Abs format (unit mm)*
G04 Created by KiCad (PCBNEW 8.0.4) date 2024-08-29 01:46:08*
%MOMM*%
%LPD*%
G01*
G04 APERTURE LIST*
%ADD10C,0.100000*%
%ADD11C,0.300000*%
%ADD12C,0.150000*%
%ADD13C,0.000000*%
%ADD14C,0.120000*%
G04 APERTURE END LIST*
D10*
X103000000Y-82000000D02*
X95000000Y-82000000D01*
X104696115Y-107985864D02*
X104696115Y-106557292D01*
X102981829Y-107985864D02*
X102981829Y-106557292D01*
X102029448Y-107985864D02*
X102029448Y-106557292D01*
X105458020Y-111205752D02*
X105458020Y-109777180D01*
X104505639Y-111205752D02*
X104505639Y-109777180D01*
X102791353Y-111205752D02*
X102791353Y-109777180D01*
X102315163Y-110967657D02*
X101553258Y-110967657D01*
X106696115Y-81491466D02*
X105934211Y-81491466D01*
X104934211Y-81872419D02*
X105505639Y-81872419D01*
X105219925Y-81872419D02*
X105219925Y-80872419D01*
X105219925Y-80872419D02*
X105315163Y-81015276D01*
X105315163Y-81015276D02*
X105410401Y-81110514D01*
X105410401Y-81110514D02*
X105505639Y-81158133D01*
X104553258Y-80967657D02*
X104505639Y-80920038D01*
X104505639Y-80920038D02*
X104410401Y-80872419D01*
X104410401Y-80872419D02*
X104172306Y-80872419D01*
X104172306Y-80872419D02*
X104077068Y-80920038D01*
X104077068Y-80920038D02*
X104029449Y-80967657D01*
X104029449Y-80967657D02*
X103981830Y-81062895D01*
X103981830Y-81062895D02*
X103981830Y-81158133D01*
X103981830Y-81158133D02*
X104029449Y-81300990D01*
X104029449Y-81300990D02*
X104600877Y-81872419D01*
X104600877Y-81872419D02*
X103981830Y-81872419D01*
X103696115Y-80872419D02*
X103362782Y-81872419D01*
X103362782Y-81872419D02*
X103029449Y-80872419D01*
D11*
X81321427Y-115249757D02*
X81464285Y-115178328D01*
X81464285Y-115178328D02*
X81678570Y-115178328D01*
X81678570Y-115178328D02*
X81892856Y-115249757D01*
X81892856Y-115249757D02*
X82035713Y-115392614D01*
X82035713Y-115392614D02*
X82107142Y-115535471D01*
X82107142Y-115535471D02*
X82178570Y-115821185D01*
X82178570Y-115821185D02*
X82178570Y-116035471D01*
X82178570Y-116035471D02*
X82107142Y-116321185D01*
X82107142Y-116321185D02*
X82035713Y-116464042D01*
X82035713Y-116464042D02*
X81892856Y-116606900D01*
X81892856Y-116606900D02*
X81678570Y-116678328D01*
X81678570Y-116678328D02*
X81535713Y-116678328D01*
X81535713Y-116678328D02*
X81321427Y-116606900D01*
X81321427Y-116606900D02*
X81249999Y-116535471D01*
X81249999Y-116535471D02*
X81249999Y-116035471D01*
X81249999Y-116035471D02*
X81535713Y-116035471D01*
X80392856Y-115178328D02*
X80392856Y-115535471D01*
X80749999Y-115392614D02*
X80392856Y-115535471D01*
X80392856Y-115535471D02*
X80035713Y-115392614D01*
X80607142Y-115821185D02*
X80392856Y-115535471D01*
X80392856Y-115535471D02*
X80178570Y-115821185D01*
X79249999Y-115178328D02*
X79249999Y-115535471D01*
X79607142Y-115392614D02*
X79249999Y-115535471D01*
X79249999Y-115535471D02*
X78892856Y-115392614D01*
X79464285Y-115821185D02*
X79249999Y-115535471D01*
X79249999Y-115535471D02*
X79035713Y-115821185D01*
X78107142Y-115178328D02*
X78107142Y-115535471D01*
X78464285Y-115392614D02*
X78107142Y-115535471D01*
X78107142Y-115535471D02*
X77749999Y-115392614D01*
X78321428Y-115821185D02*
X78107142Y-115535471D01*
X78107142Y-115535471D02*
X77892856Y-115821185D01*
D12*
X101382380Y-67714819D02*
X101382380Y-66714819D01*
X101382380Y-66714819D02*
X101001428Y-66714819D01*
X101001428Y-66714819D02*
X100906190Y-66762438D01*
X100906190Y-66762438D02*
X100858571Y-66810057D01*
X100858571Y-66810057D02*
X100810952Y-66905295D01*
X100810952Y-66905295D02*
X100810952Y-67048152D01*
X100810952Y-67048152D02*
X100858571Y-67143390D01*
X100858571Y-67143390D02*
X100906190Y-67191009D01*
X100906190Y-67191009D02*
X101001428Y-67238628D01*
X101001428Y-67238628D02*
X101382380Y-67238628D01*
X100239523Y-67714819D02*
X100334761Y-67667200D01*
X100334761Y-67667200D02*
X100382380Y-67619580D01*
X100382380Y-67619580D02*
X100429999Y-67524342D01*
X100429999Y-67524342D02*
X100429999Y-67238628D01*
X100429999Y-67238628D02*
X100382380Y-67143390D01*
X100382380Y-67143390D02*
X100334761Y-67095771D01*
X100334761Y-67095771D02*
X100239523Y-67048152D01*
X100239523Y-67048152D02*
X100096666Y-67048152D01*
X100096666Y-67048152D02*
X100001428Y-67095771D01*
X100001428Y-67095771D02*
X99953809Y-67143390D01*
X99953809Y-67143390D02*
X99906190Y-67238628D01*
X99906190Y-67238628D02*
X99906190Y-67524342D01*
X99906190Y-67524342D02*
X99953809Y-67619580D01*
X99953809Y-67619580D02*
X100001428Y-67667200D01*
X100001428Y-67667200D02*
X100096666Y-67714819D01*
X100096666Y-67714819D02*
X100239523Y-67714819D01*
X99572856Y-67048152D02*
X99382380Y-67714819D01*
X99382380Y-67714819D02*
X99191904Y-67238628D01*
X99191904Y-67238628D02*
X99001428Y-67714819D01*
X99001428Y-67714819D02*
X98810952Y-67048152D01*
X98049047Y-67667200D02*
X98144285Y-67714819D01*
X98144285Y-67714819D02*
X98334761Y-67714819D01*
X98334761Y-67714819D02*
X98429999Y-67667200D01*
X98429999Y-67667200D02*
X98477618Y-67571961D01*
X98477618Y-67571961D02*
X98477618Y-67191009D01*
X98477618Y-67191009D02*
X98429999Y-67095771D01*
X98429999Y-67095771D02*
X98334761Y-67048152D01*
X98334761Y-67048152D02*
X98144285Y-67048152D01*
X98144285Y-67048152D02*
X98049047Y-67095771D01*
X98049047Y-67095771D02*
X98001428Y-67191009D01*
X98001428Y-67191009D02*
X98001428Y-67286247D01*
X98001428Y-67286247D02*
X98477618Y-67381485D01*
X97572856Y-67714819D02*
X97572856Y-67048152D01*
X97572856Y-67238628D02*
X97525237Y-67143390D01*
X97525237Y-67143390D02*
X97477618Y-67095771D01*
X97477618Y-67095771D02*
X97382380Y-67048152D01*
X97382380Y-67048152D02*
X97287142Y-67048152D01*
X96429999Y-67714819D02*
X97001427Y-67714819D01*
X96715713Y-67714819D02*
X96715713Y-66714819D01*
X96715713Y-66714819D02*
X96810951Y-66857676D01*
X96810951Y-66857676D02*
X96906189Y-66952914D01*
X96906189Y-66952914D02*
X97001427Y-67000533D01*
D13*
%TO.C,G\u002A\u002A\u002A*%
G36*
X74129778Y-110863556D02*
G01*
X74143024Y-110889022D01*
X74073333Y-110920000D01*
X74028511Y-110913890D01*
X74016889Y-110863556D01*
X74029298Y-110853423D01*
X74129778Y-110863556D01*
G37*
G36*
X80400656Y-114215439D02*
G01*
X80585797Y-114730000D01*
X80202527Y-114730000D01*
X80145835Y-114729962D01*
X79969134Y-114721285D01*
X79879285Y-114676473D01*
X79870976Y-114565531D01*
X79938897Y-114358469D01*
X80077736Y-114025291D01*
X80215514Y-113700878D01*
X80400656Y-114215439D01*
G37*
G36*
X85306137Y-113474431D02*
G01*
X85387019Y-113512162D01*
X85453720Y-113644157D01*
X85486806Y-113905262D01*
X85487068Y-113909364D01*
X85489097Y-114164271D01*
X85432227Y-114286418D01*
X85284700Y-114296718D01*
X85014756Y-114216084D01*
X84806553Y-114100988D01*
X84687568Y-113923405D01*
X84692396Y-113735401D01*
X84806675Y-113573534D01*
X85016043Y-113474358D01*
X85306137Y-113474431D01*
G37*
G36*
X85172813Y-114820914D02*
G01*
X85380544Y-114877916D01*
X85478663Y-115022734D01*
X85503333Y-115289392D01*
X85503289Y-115307197D01*
X85483000Y-115540558D01*
X85405337Y-115648258D01*
X85240438Y-115644144D01*
X84958439Y-115542063D01*
X84954464Y-115540390D01*
X84718709Y-115383962D01*
X84607443Y-115193863D01*
X84618486Y-115009406D01*
X84749657Y-114869904D01*
X84998776Y-114814667D01*
X85172813Y-114820914D01*
G37*
G36*
X76695452Y-118994263D02*
G01*
X76687781Y-119214191D01*
X76684606Y-119305238D01*
X76542453Y-119570471D01*
X76274667Y-119753077D01*
X76253132Y-119760723D01*
X75989293Y-119777004D01*
X75705836Y-119698178D01*
X75502842Y-119555002D01*
X75808384Y-119555002D01*
X75869408Y-119613132D01*
X76046093Y-119642478D01*
X76247705Y-119576439D01*
X76409730Y-119428576D01*
X76447905Y-119367264D01*
X76501165Y-119214191D01*
X76443648Y-119089910D01*
X76372098Y-119022598D01*
X76243133Y-118968018D01*
X76191978Y-118985105D01*
X76056707Y-119098395D01*
X75919427Y-119269292D01*
X75822525Y-119440570D01*
X75808384Y-119555002D01*
X75502842Y-119555002D01*
X75492702Y-119547850D01*
X75487667Y-119541952D01*
X75286862Y-119405651D01*
X75007123Y-119325458D01*
X74910288Y-119309954D01*
X74648227Y-119217153D01*
X74528756Y-119055714D01*
X74532345Y-118931367D01*
X74666000Y-118931367D01*
X74677145Y-118994007D01*
X74758148Y-119047403D01*
X74868489Y-118998253D01*
X74949101Y-118861198D01*
X74971304Y-118738209D01*
X74961021Y-118637466D01*
X74927270Y-118627410D01*
X74820712Y-118686348D01*
X74714326Y-118806889D01*
X74666000Y-118931367D01*
X74532345Y-118931367D01*
X74535903Y-118808101D01*
X74618244Y-118599879D01*
X74851131Y-118324260D01*
X75174000Y-118133307D01*
X75202805Y-118123597D01*
X75505076Y-118101068D01*
X75857953Y-118174864D01*
X76198134Y-118325352D01*
X76462319Y-118532899D01*
X76569320Y-118674431D01*
X76594472Y-118738209D01*
X76695452Y-118994263D01*
G37*
G36*
X81122780Y-102463936D02*
G01*
X81808522Y-102490351D01*
X82370667Y-102533205D01*
X82460486Y-102542864D01*
X83590576Y-102697163D01*
X84631660Y-102900660D01*
X85568057Y-103148615D01*
X86384088Y-103436287D01*
X87064075Y-103758938D01*
X87592339Y-104111825D01*
X87884968Y-104392374D01*
X88137282Y-104779100D01*
X88225922Y-105168825D01*
X88149463Y-105553337D01*
X87906481Y-105924423D01*
X87782428Y-106057648D01*
X87632078Y-106205741D01*
X87554693Y-106263334D01*
X87560949Y-106222767D01*
X87651776Y-106105667D01*
X87768459Y-105952838D01*
X87902210Y-105597013D01*
X87876698Y-105218226D01*
X87694615Y-104831655D01*
X87358651Y-104452472D01*
X86856043Y-104077985D01*
X86210486Y-103738493D01*
X85422418Y-103438586D01*
X84483818Y-103175220D01*
X83386667Y-102945353D01*
X83106441Y-102901400D01*
X82496887Y-102834847D01*
X81778549Y-102783867D01*
X80989801Y-102749115D01*
X80169016Y-102731250D01*
X79354569Y-102730926D01*
X78584835Y-102748801D01*
X77898187Y-102785531D01*
X77333000Y-102841773D01*
X76728468Y-102933411D01*
X75798956Y-103115692D01*
X74938647Y-103335152D01*
X74172537Y-103584252D01*
X73525622Y-103855458D01*
X73022897Y-104141233D01*
X72595608Y-104482751D01*
X72271991Y-104871877D01*
X72115705Y-105264254D01*
X72127412Y-105658108D01*
X72307776Y-106051667D01*
X72344839Y-106108205D01*
X72375881Y-106175003D01*
X72307561Y-106123280D01*
X72133203Y-105949112D01*
X72068920Y-105881719D01*
X71891774Y-105665053D01*
X71808267Y-105474320D01*
X71787333Y-105246407D01*
X71788350Y-105199374D01*
X71827785Y-104909876D01*
X71906775Y-104671629D01*
X72040275Y-104466493D01*
X72406438Y-104106962D01*
X72920754Y-103768815D01*
X73569902Y-103457265D01*
X74340556Y-103177527D01*
X75219395Y-102934814D01*
X76193095Y-102734339D01*
X77248333Y-102581317D01*
X77411476Y-102563697D01*
X78041764Y-102514239D01*
X78772935Y-102479113D01*
X79560091Y-102458739D01*
X80358338Y-102453539D01*
X81122780Y-102463936D01*
G37*
G36*
X87458834Y-105458134D02*
G01*
X87229527Y-105879850D01*
X87065187Y-106101011D01*
X86603159Y-106545763D01*
X86002776Y-106927312D01*
X85256210Y-107250125D01*
X84355630Y-107518666D01*
X83535612Y-107703718D01*
X82694768Y-107845796D01*
X81820333Y-107940075D01*
X81351774Y-107973377D01*
X80172697Y-108012702D01*
X79020421Y-107989836D01*
X77912255Y-107907949D01*
X76865510Y-107770208D01*
X75897494Y-107579782D01*
X75025517Y-107339840D01*
X74266888Y-107053550D01*
X73638917Y-106724080D01*
X73158913Y-106354600D01*
X73011375Y-106194053D01*
X72792734Y-105817575D01*
X72737499Y-105437825D01*
X72846030Y-105069309D01*
X73118684Y-104726530D01*
X73335753Y-104527667D01*
X73188077Y-104758561D01*
X73112180Y-104897107D01*
X73027657Y-105262104D01*
X73100722Y-105626541D01*
X73323055Y-105983502D01*
X73686338Y-106326073D01*
X74182252Y-106647337D01*
X74802478Y-106940380D01*
X75538697Y-107198286D01*
X76382592Y-107414139D01*
X77524471Y-107609315D01*
X78857740Y-107731609D01*
X80232845Y-107759080D01*
X81603731Y-107692520D01*
X82924343Y-107532723D01*
X84148624Y-107280480D01*
X84201553Y-107266581D01*
X84657535Y-107126641D01*
X85133733Y-106950700D01*
X85584085Y-106758268D01*
X85962528Y-106568852D01*
X86223000Y-106401959D01*
X86291377Y-106344266D01*
X86306903Y-106308922D01*
X86206962Y-106327634D01*
X85969000Y-106400249D01*
X85832888Y-106435467D01*
X85443938Y-106497220D01*
X84917219Y-106545421D01*
X84273575Y-106577886D01*
X83681706Y-106588251D01*
X82993839Y-106562877D01*
X82449253Y-106487574D01*
X82036008Y-106358202D01*
X81742163Y-106170621D01*
X81555778Y-105920694D01*
X81464914Y-105604282D01*
X81446539Y-105305455D01*
X81503195Y-104968025D01*
X82076974Y-104968025D01*
X82146179Y-105183833D01*
X82146947Y-105185644D01*
X82280296Y-105424734D01*
X82437077Y-105614342D01*
X82504959Y-105666753D01*
X82809251Y-105785650D01*
X83168484Y-105800218D01*
X83538750Y-105723365D01*
X83876142Y-105568005D01*
X84136754Y-105347047D01*
X84276676Y-105073403D01*
X84280517Y-105054729D01*
X84279017Y-105032087D01*
X86524412Y-105032087D01*
X86525587Y-105054729D01*
X86532477Y-105187525D01*
X86683101Y-105329021D01*
X86787628Y-105380017D01*
X86873601Y-105406845D01*
X86905830Y-105396943D01*
X87041291Y-105359692D01*
X87118529Y-105328114D01*
X87228096Y-105193924D01*
X87227422Y-105026793D01*
X87127475Y-104884294D01*
X86939225Y-104824000D01*
X86860498Y-104828183D01*
X86640041Y-104899906D01*
X86524412Y-105032087D01*
X84279017Y-105032087D01*
X84260024Y-104745441D01*
X84075059Y-104470397D01*
X83727468Y-104232423D01*
X83452053Y-104124420D01*
X83043250Y-104071875D01*
X82666995Y-104140870D01*
X82358960Y-104322856D01*
X82154817Y-104609286D01*
X82092824Y-104778813D01*
X82076974Y-104968025D01*
X81503195Y-104968025D01*
X81529703Y-104810146D01*
X81757824Y-104391657D01*
X82123239Y-104058316D01*
X82618287Y-103818448D01*
X83235306Y-103680381D01*
X83705616Y-103657833D01*
X84263634Y-103690680D01*
X84867144Y-103771567D01*
X85480342Y-103892325D01*
X86067425Y-104044788D01*
X86592588Y-104220788D01*
X87020028Y-104412160D01*
X87313941Y-104610735D01*
X87468087Y-104806152D01*
X87538131Y-105103595D01*
X87517928Y-105193924D01*
X87458834Y-105458134D01*
G37*
G36*
X88973066Y-105454430D02*
G01*
X88879005Y-105897988D01*
X88877539Y-105902482D01*
X88863369Y-106038118D01*
X88850398Y-106328831D01*
X88848532Y-106397410D01*
X88838619Y-106761651D01*
X88828029Y-107323609D01*
X88818623Y-108001734D01*
X88814506Y-108392719D01*
X88810395Y-108783058D01*
X88803342Y-109654611D01*
X88797458Y-110603422D01*
X88792740Y-111616522D01*
X88789181Y-112680942D01*
X88786779Y-113783711D01*
X88785528Y-114911861D01*
X88785423Y-116052421D01*
X88786459Y-117192422D01*
X88788633Y-118318893D01*
X88788734Y-118352427D01*
X88791940Y-119418866D01*
X88796374Y-120479371D01*
X88801931Y-121487437D01*
X88808606Y-122430096D01*
X88816396Y-123294377D01*
X88825294Y-124067311D01*
X88835297Y-124735928D01*
X88846400Y-125287258D01*
X88858598Y-125708332D01*
X88867364Y-125891609D01*
X88871887Y-125986181D01*
X88886261Y-126107833D01*
X88967650Y-126457697D01*
X88927231Y-126908924D01*
X88730971Y-127356145D01*
X88386317Y-127792019D01*
X87900714Y-128209209D01*
X87281607Y-128600376D01*
X86536443Y-128958180D01*
X85672667Y-129275284D01*
X85592152Y-129300641D01*
X84826997Y-129511855D01*
X83990823Y-129698069D01*
X83158634Y-129844137D01*
X82405434Y-129934918D01*
X82319828Y-129942345D01*
X82016869Y-129972269D01*
X81797366Y-129999673D01*
X81704016Y-130019412D01*
X81661359Y-130028924D01*
X81472546Y-130039974D01*
X81161036Y-130045858D01*
X80755679Y-130047013D01*
X80285327Y-130043873D01*
X79778832Y-130036873D01*
X79265045Y-130026449D01*
X78772817Y-130013036D01*
X78330999Y-129997070D01*
X77968443Y-129978985D01*
X77714000Y-129959217D01*
X77247403Y-129903645D01*
X76131989Y-129723656D01*
X75093024Y-129488662D01*
X74143661Y-129204171D01*
X73297056Y-128875692D01*
X72566364Y-128508734D01*
X71964740Y-128108804D01*
X71505338Y-127681413D01*
X71201315Y-127232067D01*
X71061392Y-126845094D01*
X71040574Y-126444847D01*
X71150218Y-125996662D01*
X71161417Y-125942606D01*
X71166542Y-125886296D01*
X71364000Y-125886296D01*
X71364000Y-126224231D01*
X71381164Y-126601711D01*
X71460033Y-126946236D01*
X71626938Y-127243777D01*
X71907776Y-127557845D01*
X72351461Y-127923233D01*
X72990658Y-128303787D01*
X73762151Y-128647938D01*
X74647320Y-128949435D01*
X75627543Y-129202026D01*
X76684199Y-129399462D01*
X77798667Y-129535489D01*
X78023257Y-129551915D01*
X78450985Y-129572402D01*
X78967271Y-129588676D01*
X79535292Y-129600362D01*
X80118227Y-129607086D01*
X80679254Y-129608473D01*
X81181550Y-129604148D01*
X81588295Y-129593736D01*
X81862667Y-129576862D01*
X82181036Y-129542183D01*
X83415366Y-129370471D01*
X84537817Y-129152704D01*
X85540443Y-128891918D01*
X86415296Y-128591151D01*
X87154429Y-128253438D01*
X87749896Y-127881818D01*
X88193748Y-127479327D01*
X88478041Y-127049000D01*
X88511587Y-126965649D01*
X88598427Y-126634264D01*
X88634141Y-126300971D01*
X88636000Y-125891609D01*
X88233833Y-126246021D01*
X87775598Y-126588215D01*
X87102718Y-126960942D01*
X86293406Y-127302512D01*
X85364707Y-127606698D01*
X84333668Y-127867277D01*
X83217333Y-128078022D01*
X83202657Y-128080338D01*
X82664918Y-128144336D01*
X81996832Y-128192404D01*
X81235449Y-128224523D01*
X80417818Y-128240674D01*
X79580988Y-128240840D01*
X78762009Y-128225000D01*
X77997929Y-128193137D01*
X77325799Y-128145232D01*
X76782667Y-128081266D01*
X76268697Y-127995607D01*
X75073147Y-127740753D01*
X74010985Y-127429930D01*
X73089685Y-127065920D01*
X72316723Y-126651505D01*
X71699574Y-126189467D01*
X71364000Y-125886296D01*
X71166542Y-125886296D01*
X71182093Y-125715449D01*
X71201035Y-125339011D01*
X71218241Y-124826566D01*
X71233710Y-124191391D01*
X71247438Y-123446760D01*
X71259424Y-122605948D01*
X71269666Y-121682232D01*
X71278162Y-120688885D01*
X71284910Y-119639183D01*
X71289906Y-118546402D01*
X71290648Y-118289784D01*
X71364000Y-118289784D01*
X71365860Y-121695725D01*
X71366355Y-122410444D01*
X71368591Y-123193542D01*
X71375031Y-123837036D01*
X71388274Y-124357662D01*
X71410918Y-124772157D01*
X71445564Y-125097260D01*
X71494809Y-125349707D01*
X71561253Y-125546235D01*
X71647495Y-125703582D01*
X71756134Y-125838484D01*
X71889769Y-125967680D01*
X72051000Y-126107906D01*
X72093277Y-126143649D01*
X72686540Y-126550152D01*
X73433693Y-126915078D01*
X74324493Y-127235216D01*
X75348696Y-127507360D01*
X76496058Y-127728299D01*
X77756333Y-127894827D01*
X78309003Y-127945379D01*
X79459310Y-128003868D01*
X80603520Y-128002640D01*
X81726933Y-127945057D01*
X82814850Y-127834476D01*
X83852570Y-127674258D01*
X84825394Y-127467762D01*
X85718620Y-127218347D01*
X86517551Y-126929371D01*
X87207485Y-126604196D01*
X87773722Y-126246179D01*
X88201563Y-125858680D01*
X88476308Y-125445059D01*
X88513441Y-125353718D01*
X88546050Y-125240887D01*
X88572168Y-125095382D01*
X88592519Y-124900119D01*
X88607829Y-124638017D01*
X88618823Y-124291994D01*
X88626226Y-123844968D01*
X88630763Y-123279856D01*
X88633160Y-122579576D01*
X88634141Y-121727047D01*
X88636000Y-118352427D01*
X88123174Y-118827214D01*
X88045144Y-118898615D01*
X87808729Y-119104342D01*
X87625714Y-119247992D01*
X87530508Y-119302000D01*
X87510806Y-119340838D01*
X87486123Y-119526488D01*
X87467148Y-119846862D01*
X87454968Y-120281469D01*
X87450667Y-120809818D01*
X87448993Y-121210201D01*
X87438832Y-121728244D01*
X87424223Y-121997495D01*
X87418679Y-122099671D01*
X87387644Y-122338377D01*
X87344833Y-122458258D01*
X87304916Y-122500331D01*
X87095771Y-122640829D01*
X86771108Y-122802846D01*
X86366626Y-122971091D01*
X85918024Y-123130276D01*
X85461000Y-123265109D01*
X85409965Y-123278378D01*
X83825733Y-123610164D01*
X82167358Y-123805124D01*
X80428117Y-123863492D01*
X78601286Y-123785503D01*
X76680143Y-123571390D01*
X76635092Y-123564883D01*
X75926794Y-123447908D01*
X75242543Y-123309135D01*
X74606367Y-123155417D01*
X74042298Y-122993611D01*
X73574364Y-122830570D01*
X73226597Y-122673149D01*
X73023026Y-122528202D01*
X72978709Y-122462751D01*
X72966297Y-122427983D01*
X85483912Y-122427983D01*
X85533878Y-122419179D01*
X85667482Y-122379779D01*
X85890651Y-122299643D01*
X86236987Y-122167132D01*
X86674307Y-121997495D01*
X86663549Y-120989418D01*
X86663382Y-120974320D01*
X86654763Y-120593357D01*
X86639712Y-120291164D01*
X86620300Y-120097928D01*
X86598602Y-120043838D01*
X86569408Y-120096618D01*
X86485789Y-120283432D01*
X86367965Y-120567034D01*
X86362929Y-120579716D01*
X86231501Y-120910667D01*
X86153204Y-121104513D01*
X85981247Y-121492563D01*
X85811152Y-121834988D01*
X85670373Y-122074834D01*
X85578788Y-122214150D01*
X85520540Y-122318766D01*
X85491970Y-122370080D01*
X85483912Y-122427983D01*
X72966297Y-122427983D01*
X72930416Y-122327472D01*
X72892714Y-122119430D01*
X72863883Y-121819314D01*
X72842205Y-121407812D01*
X72825962Y-120865612D01*
X72813433Y-120173403D01*
X72809997Y-119937000D01*
X73654483Y-119937000D01*
X73673408Y-120988164D01*
X73692333Y-122039327D01*
X74115667Y-122188102D01*
X74364517Y-122272713D01*
X74587979Y-122332010D01*
X74686218Y-122318766D01*
X74677739Y-122227618D01*
X74581046Y-122053201D01*
X74499213Y-121903297D01*
X74358008Y-121610287D01*
X74193214Y-121242714D01*
X74026048Y-120846701D01*
X73654483Y-119937000D01*
X72809997Y-119937000D01*
X72803333Y-119478472D01*
X72429657Y-119259482D01*
X72274669Y-119157395D01*
X71976112Y-118919986D01*
X71709990Y-118665139D01*
X71364000Y-118289784D01*
X71290648Y-118289784D01*
X71293151Y-117423816D01*
X71294640Y-116284701D01*
X71294373Y-115142333D01*
X71292347Y-114009985D01*
X71288560Y-112900934D01*
X71283009Y-111828455D01*
X71275694Y-110805823D01*
X71266611Y-109846313D01*
X71255759Y-108963200D01*
X71243136Y-108169760D01*
X71240462Y-108041522D01*
X71364000Y-108041522D01*
X71364000Y-108509814D01*
X71370840Y-108684571D01*
X71412517Y-109006857D01*
X71479488Y-109254506D01*
X71575343Y-109427525D01*
X71866288Y-109750145D01*
X72288042Y-110070010D01*
X72816820Y-110370286D01*
X73428837Y-110634140D01*
X73946333Y-110826511D01*
X73544167Y-110830922D01*
X73484134Y-110832345D01*
X73176040Y-110880539D01*
X72970480Y-111006854D01*
X72940154Y-111039319D01*
X72905822Y-111090310D01*
X72877617Y-111163886D01*
X72854969Y-111274723D01*
X72837312Y-111437494D01*
X72824076Y-111666876D01*
X72814694Y-111977541D01*
X72808599Y-112384166D01*
X72805221Y-112901425D01*
X72803993Y-113543992D01*
X72804348Y-114326542D01*
X72805716Y-115263751D01*
X72805792Y-115307995D01*
X72808447Y-116122801D01*
X72813215Y-116885589D01*
X72819832Y-117579598D01*
X72828034Y-118188069D01*
X72837556Y-118694244D01*
X72848134Y-119081363D01*
X72859504Y-119332667D01*
X72871403Y-119431397D01*
X72891801Y-119452739D01*
X73036484Y-119550433D01*
X73252230Y-119662560D01*
X73574126Y-119811453D01*
X73571465Y-119383854D01*
X73667457Y-119383854D01*
X73782955Y-119590051D01*
X74064421Y-119799565D01*
X74510594Y-120011270D01*
X75120211Y-120224039D01*
X75701422Y-120403156D01*
X75704125Y-120400783D01*
X75983069Y-120400783D01*
X76011520Y-120467601D01*
X76180587Y-120504012D01*
X76351070Y-120498203D01*
X76482724Y-120379084D01*
X76527511Y-120121612D01*
X76527513Y-120121456D01*
X76469816Y-120064699D01*
X76332185Y-120086562D01*
X76172325Y-120167183D01*
X76047940Y-120286696D01*
X75983069Y-120400783D01*
X75704125Y-120400783D01*
X76001930Y-120139307D01*
X76022566Y-120121290D01*
X76133532Y-120037850D01*
X77502542Y-120037850D01*
X77508458Y-120121456D01*
X77514981Y-120213627D01*
X77572330Y-120352919D01*
X77661227Y-120390773D01*
X77748736Y-120264935D01*
X77761326Y-120183160D01*
X77719088Y-120039024D01*
X77629806Y-119943833D01*
X77534095Y-119956039D01*
X77502542Y-120037850D01*
X76133532Y-120037850D01*
X76228814Y-119966203D01*
X76410512Y-119908772D01*
X76648386Y-119921841D01*
X76915626Y-119929621D01*
X77206000Y-119849779D01*
X77241274Y-119830600D01*
X77528002Y-119731537D01*
X77739220Y-119780733D01*
X77883544Y-119979841D01*
X77932433Y-120183160D01*
X77941719Y-120221780D01*
X77938265Y-120487841D01*
X77919865Y-120602668D01*
X77941976Y-120714665D01*
X78054783Y-120741334D01*
X78173597Y-120704913D01*
X78222000Y-120548506D01*
X78240875Y-120435754D01*
X78403324Y-120435754D01*
X78449632Y-120590274D01*
X78464372Y-120619040D01*
X78592077Y-120753515D01*
X78741579Y-120804969D01*
X78849605Y-120748389D01*
X78861005Y-120725149D01*
X78910226Y-120547306D01*
X78938243Y-120325173D01*
X78939036Y-120191000D01*
X80000000Y-120191000D01*
X80021687Y-120330227D01*
X80087324Y-120402667D01*
X80175075Y-120355583D01*
X80236410Y-120215562D01*
X80219687Y-120104632D01*
X80441423Y-120104632D01*
X80451556Y-120205111D01*
X80471648Y-120215562D01*
X80477022Y-120218357D01*
X80508000Y-120148667D01*
X80501890Y-120103845D01*
X80451556Y-120092222D01*
X80441423Y-120104632D01*
X80219687Y-120104632D01*
X80214173Y-120068055D01*
X80126149Y-119983961D01*
X80037364Y-120021446D01*
X80013772Y-120128505D01*
X80000000Y-120191000D01*
X78939036Y-120191000D01*
X78939405Y-120128505D01*
X78908059Y-120027060D01*
X78893014Y-120021799D01*
X78765024Y-120059496D01*
X78591005Y-120179842D01*
X78454809Y-120311119D01*
X78403324Y-120435754D01*
X78240875Y-120435754D01*
X78247791Y-120394437D01*
X78346313Y-120178196D01*
X78396811Y-120100362D01*
X78418046Y-119981268D01*
X78310673Y-119855959D01*
X78253101Y-119814362D01*
X78560667Y-119814362D01*
X78618655Y-119882840D01*
X78769167Y-119890877D01*
X78949807Y-119840309D01*
X79097878Y-119739833D01*
X79137035Y-119692251D01*
X79225875Y-119507918D01*
X79213439Y-119361598D01*
X79099542Y-119302000D01*
X79095929Y-119302075D01*
X78949836Y-119365403D01*
X78772780Y-119509116D01*
X78623482Y-119677380D01*
X78560667Y-119814362D01*
X78253101Y-119814362D01*
X78244717Y-119808304D01*
X78017922Y-119698194D01*
X77741860Y-119607282D01*
X77515063Y-119531204D01*
X77333500Y-119387751D01*
X77302174Y-119181735D01*
X77305257Y-119173516D01*
X77469352Y-119173516D01*
X77502477Y-119301055D01*
X77599236Y-119331677D01*
X77706157Y-119231989D01*
X77780887Y-119074198D01*
X77777366Y-118984560D01*
X77669010Y-118963334D01*
X77600165Y-118979874D01*
X77488434Y-119096025D01*
X77469352Y-119173516D01*
X77305257Y-119173516D01*
X77411055Y-118891453D01*
X77541718Y-118638778D01*
X77149501Y-118638778D01*
X77098395Y-118637926D01*
X76702681Y-118559268D01*
X76412630Y-118359673D01*
X76385846Y-118310543D01*
X78202143Y-118310543D01*
X78293611Y-118377494D01*
X78529604Y-118449339D01*
X78873497Y-118581955D01*
X79195970Y-118814537D01*
X79391061Y-119074198D01*
X79412708Y-119103009D01*
X79492000Y-119415537D01*
X79491481Y-119449033D01*
X79483618Y-119507918D01*
X79463921Y-119655418D01*
X79407333Y-119767667D01*
X79384211Y-119784996D01*
X79322667Y-119899664D01*
X79324467Y-119924874D01*
X79367857Y-119969712D01*
X79494538Y-119945335D01*
X79582742Y-119909915D01*
X81521778Y-119909915D01*
X81581817Y-119981268D01*
X81722674Y-120148667D01*
X81728705Y-120155834D01*
X81749945Y-120181619D01*
X81899367Y-120393374D01*
X81989522Y-120571543D01*
X82031389Y-120665336D01*
X82136654Y-120736567D01*
X82243890Y-120663233D01*
X82303164Y-120503516D01*
X82455333Y-120503516D01*
X82461729Y-120557390D01*
X82543068Y-120635321D01*
X82749852Y-120656667D01*
X82795805Y-120656586D01*
X82962943Y-120643636D01*
X83001342Y-120579716D01*
X82945437Y-120423834D01*
X82890196Y-120300353D01*
X82860384Y-120251623D01*
X84289887Y-120251623D01*
X84310928Y-120347233D01*
X84391756Y-120386213D01*
X84558007Y-120370678D01*
X84835320Y-120302745D01*
X85249333Y-120184531D01*
X85479592Y-120114272D01*
X85813775Y-119988438D01*
X86052869Y-119852399D01*
X86244167Y-119682280D01*
X86340341Y-119569179D01*
X86497704Y-119264332D01*
X86494228Y-118981165D01*
X86328833Y-118731782D01*
X86295934Y-118706981D01*
X86120141Y-118614904D01*
X85854668Y-118502108D01*
X85540484Y-118382972D01*
X85218557Y-118271875D01*
X84929856Y-118183196D01*
X84715347Y-118131315D01*
X84615999Y-118130609D01*
X84606881Y-118192923D01*
X84605290Y-118203795D01*
X84666746Y-118375603D01*
X84787220Y-118584578D01*
X84935987Y-118779438D01*
X85082322Y-118908903D01*
X85103499Y-118921868D01*
X85266979Y-119059472D01*
X85334000Y-119186300D01*
X85330256Y-119223124D01*
X85272891Y-119333184D01*
X85231632Y-119412343D01*
X85039097Y-119603246D01*
X84806521Y-119750807D01*
X84689711Y-119782416D01*
X84587776Y-119810000D01*
X84431942Y-119824378D01*
X84342386Y-119906133D01*
X84301931Y-120106334D01*
X84289887Y-120251623D01*
X82860384Y-120251623D01*
X82780769Y-120121488D01*
X82683145Y-120087822D01*
X82576634Y-120186016D01*
X82504143Y-120314793D01*
X82455333Y-120503516D01*
X82303164Y-120503516D01*
X82320567Y-120456624D01*
X82322405Y-120447025D01*
X82423928Y-120172346D01*
X82626137Y-119964941D01*
X82963333Y-119789191D01*
X83082352Y-119731432D01*
X83267608Y-119574907D01*
X83646241Y-119574907D01*
X83742267Y-119708400D01*
X83799177Y-119757003D01*
X83911600Y-119810000D01*
X83975851Y-119782416D01*
X83946177Y-119691436D01*
X83810000Y-119575649D01*
X83676553Y-119522537D01*
X83646241Y-119574907D01*
X83267608Y-119574907D01*
X83328467Y-119523487D01*
X83383556Y-119397034D01*
X84741333Y-119397034D01*
X84773021Y-119440179D01*
X84910667Y-119471334D01*
X85007295Y-119447312D01*
X85081897Y-119333184D01*
X85024290Y-119189846D01*
X85017088Y-119183982D01*
X84913688Y-119194427D01*
X84816402Y-119268754D01*
X84796872Y-119283675D01*
X84741333Y-119397034D01*
X83383556Y-119397034D01*
X83439440Y-119268754D01*
X83398476Y-118997775D01*
X83368912Y-118937050D01*
X83281814Y-118836085D01*
X83182720Y-118872260D01*
X83051363Y-118938696D01*
X82785538Y-118976885D01*
X82507513Y-118946625D01*
X82301133Y-118850028D01*
X82209025Y-118772179D01*
X82154387Y-118748462D01*
X82508153Y-118748462D01*
X82543017Y-118808468D01*
X82685551Y-118877090D01*
X82869387Y-118846865D01*
X83047926Y-118741295D01*
X83174571Y-118583883D01*
X83202723Y-118398133D01*
X83161230Y-118306438D01*
X83655963Y-118306438D01*
X83691460Y-118398133D01*
X83707485Y-118439529D01*
X83858026Y-118521153D01*
X84059958Y-118460814D01*
X84129414Y-118426097D01*
X84240864Y-118417655D01*
X84288589Y-118417627D01*
X84398740Y-118333066D01*
X84427099Y-118293569D01*
X84428662Y-118192923D01*
X84292761Y-118077748D01*
X84068018Y-117996004D01*
X83853018Y-118018677D01*
X83816511Y-118044613D01*
X83698880Y-118128183D01*
X83655963Y-118306438D01*
X83161230Y-118306438D01*
X83160905Y-118305720D01*
X83022286Y-118221924D01*
X82862583Y-118237103D01*
X82755716Y-118357910D01*
X82706096Y-118457630D01*
X82580538Y-118571307D01*
X82525149Y-118612409D01*
X82508153Y-118748462D01*
X82154387Y-118748462D01*
X82097201Y-118723639D01*
X82044931Y-118812631D01*
X82035517Y-118988734D01*
X82032000Y-119054513D01*
X82027110Y-119178059D01*
X81958263Y-119425717D01*
X81776889Y-119654804D01*
X81641487Y-119790206D01*
X81521778Y-119909915D01*
X79582742Y-119909915D01*
X79738105Y-119847526D01*
X79766986Y-119835582D01*
X80008885Y-119770802D01*
X80203772Y-119770216D01*
X80268456Y-119787060D01*
X80325666Y-119790206D01*
X80232832Y-119725168D01*
X80186220Y-119690170D01*
X80019232Y-119486464D01*
X79885444Y-119223339D01*
X79830667Y-118985098D01*
X79821175Y-118942159D01*
X80100279Y-118942159D01*
X80147372Y-119110269D01*
X80261416Y-119194504D01*
X80413777Y-119131441D01*
X80500185Y-119023135D01*
X81632862Y-119023135D01*
X81633679Y-119175492D01*
X81721311Y-119249690D01*
X81845733Y-119200400D01*
X81892159Y-119141733D01*
X81947333Y-118988734D01*
X81942200Y-118952823D01*
X81859643Y-118884205D01*
X81733184Y-118905522D01*
X81637101Y-119011358D01*
X81632862Y-119023135D01*
X80500185Y-119023135D01*
X80580818Y-118922068D01*
X80589755Y-118906880D01*
X80690035Y-118717247D01*
X80700937Y-118619384D01*
X80628551Y-118568143D01*
X80489795Y-118558931D01*
X80285380Y-118614252D01*
X80268268Y-118622266D01*
X80120798Y-118744613D01*
X80100279Y-118942159D01*
X79821175Y-118942159D01*
X79815947Y-118918507D01*
X79697951Y-118815111D01*
X79438553Y-118724246D01*
X79122993Y-118602231D01*
X78784868Y-118362255D01*
X78629612Y-118156343D01*
X80169333Y-118156343D01*
X80171483Y-118184583D01*
X80242029Y-118275430D01*
X80361061Y-118262100D01*
X80458601Y-118146882D01*
X80480203Y-118069635D01*
X80471311Y-117967089D01*
X80467542Y-117963580D01*
X80353848Y-117954016D01*
X80228456Y-118034558D01*
X80169333Y-118156343D01*
X78629612Y-118156343D01*
X78556120Y-118058873D01*
X78466724Y-117722967D01*
X78462561Y-117576700D01*
X78730000Y-117576700D01*
X78744044Y-117676678D01*
X78844143Y-117768854D01*
X79027880Y-117729915D01*
X79280333Y-117560304D01*
X79334273Y-117515017D01*
X79424943Y-117426844D01*
X79780615Y-117426844D01*
X79810606Y-117456551D01*
X79973296Y-117540431D01*
X80210935Y-117617315D01*
X80339762Y-117654030D01*
X80562198Y-117767261D01*
X80640460Y-117927373D01*
X80611028Y-118069635D01*
X80592387Y-118159735D01*
X80567669Y-118230119D01*
X80561397Y-118343855D01*
X80658262Y-118373360D01*
X80779880Y-118400320D01*
X80968682Y-118500360D01*
X81051976Y-118558384D01*
X81197028Y-118619384D01*
X81220153Y-118629109D01*
X81294385Y-118580615D01*
X81256868Y-118417990D01*
X81215320Y-118289771D01*
X81225099Y-118172895D01*
X81369576Y-118172895D01*
X81443418Y-118319267D01*
X81551257Y-118327139D01*
X81636862Y-118187326D01*
X81663193Y-118044613D01*
X81623413Y-117953483D01*
X81479061Y-117978951D01*
X81412579Y-118026243D01*
X81369576Y-118172895D01*
X81225099Y-118172895D01*
X81230102Y-118113104D01*
X81333322Y-117866456D01*
X81382270Y-117760567D01*
X81447520Y-117575685D01*
X81447860Y-117486936D01*
X81400293Y-117475064D01*
X81210942Y-117449748D01*
X80916473Y-117420296D01*
X80556144Y-117390935D01*
X80196524Y-117368473D01*
X79930305Y-117364228D01*
X79797741Y-117383404D01*
X79780615Y-117426844D01*
X79424943Y-117426844D01*
X79459274Y-117393459D01*
X79469036Y-117314812D01*
X79377937Y-117230497D01*
X79188596Y-117157311D01*
X78969785Y-117200219D01*
X78798937Y-117349624D01*
X78730000Y-117576700D01*
X78462561Y-117576700D01*
X78457447Y-117397000D01*
X78435973Y-117506229D01*
X78384931Y-117765862D01*
X78364641Y-117858671D01*
X78294074Y-118096036D01*
X78223199Y-118242223D01*
X78202143Y-118310543D01*
X76385846Y-118310543D01*
X76243189Y-118048869D01*
X76189622Y-117898884D01*
X76092825Y-117818844D01*
X75903824Y-117829808D01*
X75705775Y-117864200D01*
X75083694Y-118008598D01*
X74617294Y-118185065D01*
X74297521Y-118397754D01*
X74115323Y-118650822D01*
X73983446Y-118884145D01*
X73825394Y-119068338D01*
X73719190Y-119182101D01*
X73667457Y-119383854D01*
X73571465Y-119383854D01*
X73561612Y-117800909D01*
X76383634Y-117800909D01*
X76383748Y-117930118D01*
X76492381Y-118068286D01*
X76635569Y-118185859D01*
X76749581Y-118192757D01*
X76832316Y-118056268D01*
X76901145Y-117763436D01*
X76918405Y-117542693D01*
X76895386Y-117481667D01*
X77968000Y-117481667D01*
X77977506Y-117542693D01*
X77989687Y-117620894D01*
X78055324Y-117693334D01*
X78143075Y-117646250D01*
X78204410Y-117506229D01*
X78182173Y-117358721D01*
X78094149Y-117274628D01*
X78005364Y-117312113D01*
X77968000Y-117481667D01*
X76895386Y-117481667D01*
X76863720Y-117397717D01*
X76738593Y-117399833D01*
X76557133Y-117557488D01*
X76498871Y-117626759D01*
X76383634Y-117800909D01*
X73561612Y-117800909D01*
X73548563Y-115704354D01*
X73546903Y-115371467D01*
X73917517Y-115371467D01*
X73991038Y-115751724D01*
X73991928Y-115753859D01*
X74128586Y-115960818D01*
X74303734Y-116091789D01*
X74467041Y-116140455D01*
X74902675Y-116154228D01*
X75338373Y-116013525D01*
X75745500Y-115725617D01*
X75804909Y-115668661D01*
X75916261Y-115527630D01*
X75888307Y-115431185D01*
X75717925Y-115335153D01*
X75618341Y-115296051D01*
X75461828Y-115294776D01*
X75283174Y-115406229D01*
X75227037Y-115447111D01*
X74968783Y-115559524D01*
X74740481Y-115548456D01*
X74584616Y-115413467D01*
X74531768Y-115238100D01*
X74592753Y-115070207D01*
X74790249Y-114905841D01*
X75139035Y-114726694D01*
X75232111Y-114682600D01*
X75620979Y-114426656D01*
X75649723Y-114391334D01*
X76274667Y-114391334D01*
X76277584Y-114846585D01*
X76286494Y-115272570D01*
X76300301Y-115608674D01*
X76317896Y-115828417D01*
X76338167Y-115905316D01*
X76549331Y-115865623D01*
X76716856Y-115805470D01*
X76861351Y-115700156D01*
X77009294Y-115524056D01*
X77187166Y-115251546D01*
X77421446Y-114857000D01*
X77965892Y-113925667D01*
X77966946Y-114798611D01*
X77968000Y-115671555D01*
X78285500Y-115645278D01*
X78603000Y-115619000D01*
X78605146Y-115494988D01*
X78963128Y-115494988D01*
X78978187Y-115573074D01*
X79166984Y-115627549D01*
X79393403Y-115563853D01*
X79560120Y-115379883D01*
X79560382Y-115379345D01*
X79634665Y-115255556D01*
X79735704Y-115187695D01*
X79910987Y-115159156D01*
X80208004Y-115153334D01*
X80284656Y-115153427D01*
X80547414Y-115160822D01*
X80696232Y-115193301D01*
X80776592Y-115269319D01*
X80833980Y-115407334D01*
X80892875Y-115542845D01*
X81008719Y-115639108D01*
X81223263Y-115661334D01*
X81265690Y-115660808D01*
X81449410Y-115643327D01*
X81524000Y-115608774D01*
X81508076Y-115551491D01*
X81442978Y-115356122D01*
X81387222Y-115195667D01*
X81777985Y-115195667D01*
X81777992Y-115423312D01*
X81778122Y-115496041D01*
X81791856Y-115568986D01*
X81831573Y-115608774D01*
X81844726Y-115621951D01*
X81962522Y-115663053D01*
X82171029Y-115700407D01*
X82496037Y-115742128D01*
X82963333Y-115796330D01*
X83060928Y-115808390D01*
X83318784Y-115847329D01*
X83492500Y-115883528D01*
X83536134Y-115889530D01*
X83577224Y-115862151D01*
X83605919Y-115775598D01*
X83624415Y-115607842D01*
X83634908Y-115336850D01*
X83637172Y-115145344D01*
X83996484Y-115145344D01*
X84100484Y-115461746D01*
X84302719Y-115749886D01*
X84589423Y-115968129D01*
X84813306Y-116060969D01*
X85134316Y-116165135D01*
X85482167Y-116257713D01*
X86096000Y-116401614D01*
X86096000Y-114625786D01*
X86096000Y-112849957D01*
X85382479Y-112879812D01*
X85144818Y-112892608D01*
X84823073Y-112928831D01*
X84599900Y-112990378D01*
X84429979Y-113087113D01*
X84347471Y-113157478D01*
X84149333Y-113455905D01*
X84083349Y-113808146D01*
X84163120Y-114159539D01*
X84241091Y-114350614D01*
X84238455Y-114397039D01*
X84234189Y-114472156D01*
X84135973Y-114596647D01*
X84004484Y-114842316D01*
X83996484Y-115145344D01*
X83637172Y-115145344D01*
X83639593Y-114940593D01*
X83640667Y-114397039D01*
X83640667Y-112867334D01*
X82709333Y-112867334D01*
X81778000Y-112867334D01*
X81778000Y-113121333D01*
X81778011Y-113126046D01*
X81797044Y-113299264D01*
X81841500Y-113365307D01*
X81949615Y-113361654D01*
X82178259Y-113361620D01*
X82476500Y-113365307D01*
X83048000Y-113375334D01*
X83048000Y-113756334D01*
X83048000Y-114137334D01*
X82497667Y-114137334D01*
X82407784Y-114137456D01*
X82148953Y-114144159D01*
X82011438Y-114171842D01*
X81956984Y-114235217D01*
X81947333Y-114349000D01*
X81947821Y-114377256D01*
X81996629Y-114525209D01*
X82159000Y-114571250D01*
X82310280Y-114582568D01*
X82455333Y-114603000D01*
X82583770Y-114620492D01*
X82794000Y-114634750D01*
X82815038Y-114635700D01*
X82971117Y-114661896D01*
X83035446Y-114753726D01*
X83048008Y-114962834D01*
X83048016Y-115280334D01*
X82413000Y-115238000D01*
X81777985Y-115195667D01*
X81387222Y-115195667D01*
X81336459Y-115049579D01*
X81198021Y-114659128D01*
X81037167Y-114212032D01*
X80550333Y-112867850D01*
X80199559Y-112867592D01*
X80134476Y-112869103D01*
X79914828Y-112903750D01*
X79809052Y-112973167D01*
X79704910Y-113251533D01*
X79438874Y-113974632D01*
X79234299Y-114552326D01*
X79088563Y-114992815D01*
X78999047Y-115304302D01*
X78963128Y-115494988D01*
X78605146Y-115494988D01*
X78626811Y-114243167D01*
X78650622Y-112867334D01*
X78288144Y-112868393D01*
X77925667Y-112869452D01*
X77460000Y-113704663D01*
X77285389Y-114006218D01*
X77122097Y-114263908D01*
X77002754Y-114424863D01*
X76945240Y-114462751D01*
X76935429Y-114430646D01*
X76917963Y-114255344D01*
X76908671Y-113972916D01*
X76909400Y-113626481D01*
X76922653Y-112867334D01*
X76598660Y-112867334D01*
X76274667Y-112867334D01*
X76274667Y-113809410D01*
X76274667Y-114391334D01*
X75649723Y-114391334D01*
X75862046Y-114130417D01*
X75950281Y-113809410D01*
X75880653Y-113479162D01*
X75648133Y-113155200D01*
X75587206Y-113095564D01*
X75400051Y-112947737D01*
X75204249Y-112882176D01*
X74920000Y-112867334D01*
X74827948Y-112868178D01*
X74576145Y-112893892D01*
X74390718Y-112979050D01*
X74191867Y-113155200D01*
X74005304Y-113357603D01*
X73921360Y-113514725D01*
X73964892Y-113632171D01*
X74132499Y-113743648D01*
X74273591Y-113807832D01*
X74392806Y-113796227D01*
X74519645Y-113661686D01*
X74665841Y-113530212D01*
X74898537Y-113454822D01*
X75118858Y-113502084D01*
X75273916Y-113671323D01*
X75298782Y-113738650D01*
X75283290Y-113960325D01*
X75105073Y-114145856D01*
X74766954Y-114291784D01*
X74506571Y-114403871D01*
X74194249Y-114661857D01*
X73991576Y-114996284D01*
X73917517Y-115371467D01*
X73546903Y-115371467D01*
X73545258Y-115041459D01*
X73543734Y-114201583D01*
X73545575Y-113457133D01*
X73550626Y-112820424D01*
X73558735Y-112303771D01*
X73569747Y-111919488D01*
X73583508Y-111679891D01*
X73599865Y-111597294D01*
X73673475Y-111606416D01*
X73887194Y-111641392D01*
X74199843Y-111696475D01*
X74573532Y-111765131D01*
X74674923Y-111783915D01*
X75242844Y-111880986D01*
X75798869Y-111959701D01*
X76373196Y-112022529D01*
X76996026Y-112071938D01*
X77697556Y-112110395D01*
X78507984Y-112140370D01*
X79457511Y-112164331D01*
X80439735Y-112178342D01*
X81408996Y-112175265D01*
X82227496Y-112152405D01*
X82886511Y-112109899D01*
X83032425Y-112095935D01*
X83501558Y-112043956D01*
X84025711Y-111977652D01*
X84573000Y-111901894D01*
X85111540Y-111821553D01*
X85609445Y-111741499D01*
X86034830Y-111666602D01*
X86355810Y-111601734D01*
X86540500Y-111551763D01*
X86552187Y-111547891D01*
X86584359Y-111549618D01*
X86611050Y-111582689D01*
X86632771Y-111660902D01*
X86650029Y-111798057D01*
X86663335Y-112007952D01*
X86673196Y-112304386D01*
X86680123Y-112701158D01*
X86684625Y-113212068D01*
X86687210Y-113850913D01*
X86688378Y-114625786D01*
X86688387Y-114631494D01*
X86688667Y-115567608D01*
X86688670Y-115616598D01*
X86689714Y-116426274D01*
X86692496Y-117181015D01*
X86693344Y-117314812D01*
X86694435Y-117486936D01*
X86696827Y-117864481D01*
X86702523Y-118460327D01*
X86709395Y-118952212D01*
X86715999Y-119264332D01*
X86717257Y-119323792D01*
X86725922Y-119558724D01*
X86735205Y-119640667D01*
X86748726Y-119639272D01*
X86890468Y-119584984D01*
X87089315Y-119480450D01*
X87275256Y-119365109D01*
X87378280Y-119278402D01*
X87378871Y-119277400D01*
X87396235Y-119162138D01*
X87411007Y-118899022D01*
X87423220Y-118508853D01*
X87432910Y-118012433D01*
X87440112Y-117430564D01*
X87444860Y-116784048D01*
X87447188Y-116093687D01*
X87447133Y-115380283D01*
X87444728Y-114664636D01*
X87440008Y-113967550D01*
X87433007Y-113309826D01*
X87423762Y-112712265D01*
X87412306Y-112195670D01*
X87398674Y-111780842D01*
X87382900Y-111488584D01*
X87365021Y-111339697D01*
X87275828Y-111120108D01*
X87052254Y-110892414D01*
X86725510Y-110797917D01*
X86297643Y-110837580D01*
X86097866Y-110878749D01*
X85919835Y-110901039D01*
X85900039Y-110877487D01*
X86037155Y-110813195D01*
X86329861Y-110713266D01*
X86376855Y-110698309D01*
X86973697Y-110469282D01*
X87514074Y-110192277D01*
X87970262Y-109885726D01*
X88314536Y-109568062D01*
X88519171Y-109257717D01*
X88549969Y-109167261D01*
X88599508Y-108925897D01*
X88628774Y-108651030D01*
X88635444Y-108392719D01*
X88617194Y-108201023D01*
X88571700Y-108126000D01*
X88513212Y-108157860D01*
X88408640Y-108284139D01*
X88369484Y-108336072D01*
X88165487Y-108521789D01*
X87854774Y-108742964D01*
X87473806Y-108976702D01*
X87059044Y-109200109D01*
X86646949Y-109390293D01*
X86291290Y-109527159D01*
X85579516Y-109756196D01*
X84776138Y-109969414D01*
X83930098Y-110154316D01*
X83090333Y-110298408D01*
X82777252Y-110337515D01*
X82124189Y-110392352D01*
X81369467Y-110430021D01*
X80551677Y-110450536D01*
X79709407Y-110453910D01*
X78881248Y-110440157D01*
X78105789Y-110409289D01*
X77421621Y-110361319D01*
X76867333Y-110296262D01*
X75943072Y-110133861D01*
X74814682Y-109872537D01*
X73819838Y-109563893D01*
X72966550Y-109210905D01*
X72262828Y-108816545D01*
X71716683Y-108383789D01*
X71364000Y-108041522D01*
X71240462Y-108041522D01*
X71228739Y-107479268D01*
X71212566Y-106904998D01*
X71194616Y-106460227D01*
X71190512Y-106397410D01*
X71364000Y-106397410D01*
X71364000Y-106867389D01*
X71367557Y-106985145D01*
X71473109Y-107489277D01*
X71727846Y-107950462D01*
X72135351Y-108371813D01*
X72699210Y-108756447D01*
X73423007Y-109107477D01*
X74310326Y-109428021D01*
X74437247Y-109467605D01*
X75004448Y-109630668D01*
X75574036Y-109768332D01*
X76187699Y-109888982D01*
X76887125Y-110001006D01*
X77714000Y-110112791D01*
X77933711Y-110131406D01*
X78288870Y-110149871D01*
X78736453Y-110166664D01*
X79239086Y-110180994D01*
X79759398Y-110192072D01*
X80260017Y-110199105D01*
X80703572Y-110201304D01*
X81052690Y-110197877D01*
X81270000Y-110188034D01*
X81486489Y-110167088D01*
X82336479Y-110079464D01*
X83054345Y-109994168D01*
X83670178Y-109906004D01*
X84214069Y-109809781D01*
X84716109Y-109700303D01*
X85206389Y-109572377D01*
X85715000Y-109420809D01*
X85720162Y-109419192D01*
X86354166Y-109191304D01*
X86965978Y-108918058D01*
X87507224Y-108623263D01*
X87929530Y-108330732D01*
X87935676Y-108325688D01*
X88320052Y-107906687D01*
X88555840Y-107411210D01*
X88636000Y-106853974D01*
X88636000Y-106397410D01*
X88276167Y-106743973D01*
X87995196Y-106987826D01*
X87330065Y-107425883D01*
X86509158Y-107817729D01*
X85537724Y-108161361D01*
X84421013Y-108454774D01*
X83164273Y-108695964D01*
X83074484Y-108709643D01*
X82536381Y-108768571D01*
X81873671Y-108812211D01*
X81123012Y-108840588D01*
X80321063Y-108853726D01*
X79504481Y-108851649D01*
X78709926Y-108834384D01*
X77974055Y-108801954D01*
X77333527Y-108754383D01*
X76825000Y-108691698D01*
X76091226Y-108559481D01*
X74929163Y-108290408D01*
X73904579Y-107971719D01*
X73024288Y-107606016D01*
X72295102Y-107195901D01*
X71723833Y-106743973D01*
X71364000Y-106397410D01*
X71190512Y-106397410D01*
X71174886Y-106158230D01*
X71153374Y-106012281D01*
X71127037Y-105931841D01*
X71055142Y-105634901D01*
X71027193Y-105384855D01*
X71029139Y-105352064D01*
X71279006Y-105352064D01*
X71382777Y-105766344D01*
X71633475Y-106168205D01*
X72025557Y-106553116D01*
X72553479Y-106916550D01*
X73211697Y-107253978D01*
X73994668Y-107560872D01*
X74896849Y-107832704D01*
X75912696Y-108064946D01*
X77036667Y-108253068D01*
X77248990Y-108279792D01*
X77839990Y-108334173D01*
X78529951Y-108376672D01*
X79274326Y-108406195D01*
X80028566Y-108421648D01*
X80748123Y-108421936D01*
X81388451Y-108405965D01*
X81905000Y-108372642D01*
X82674817Y-108287057D01*
X83894960Y-108098706D01*
X84999074Y-107858732D01*
X85978833Y-107570148D01*
X86825914Y-107235968D01*
X87531990Y-106859205D01*
X88088738Y-106442871D01*
X88487833Y-105989980D01*
X88607605Y-105781406D01*
X88725797Y-105355295D01*
X88679687Y-104929499D01*
X88472521Y-104509497D01*
X88107546Y-104100770D01*
X87588008Y-103708796D01*
X86917155Y-103339055D01*
X86555318Y-103176340D01*
X85489265Y-102795910D01*
X84278291Y-102493417D01*
X82926834Y-102269844D01*
X81439333Y-102126174D01*
X80476982Y-102084168D01*
X79277692Y-102090942D01*
X78097489Y-102159939D01*
X76954768Y-102287404D01*
X75867924Y-102469584D01*
X74855351Y-102702724D01*
X73935445Y-102983071D01*
X73126599Y-103306869D01*
X72447209Y-103670366D01*
X71915671Y-104069807D01*
X71904686Y-104079980D01*
X71534416Y-104504353D01*
X71327704Y-104929890D01*
X71279006Y-105352064D01*
X71029139Y-105352064D01*
X71034706Y-105258259D01*
X71166471Y-104810354D01*
X71454388Y-104372770D01*
X71888169Y-103951983D01*
X72457531Y-103554467D01*
X73152187Y-103186699D01*
X73961853Y-102855152D01*
X74876242Y-102566303D01*
X75885069Y-102326625D01*
X76244686Y-102257270D01*
X77277142Y-102098600D01*
X78328312Y-102000951D01*
X79445831Y-101960824D01*
X80677333Y-101974722D01*
X81154753Y-101989623D01*
X81663506Y-102008017D01*
X82070759Y-102028467D01*
X82415043Y-102054748D01*
X82734891Y-102090635D01*
X83068835Y-102139903D01*
X83455407Y-102206326D01*
X83933140Y-102293680D01*
X84705692Y-102456950D01*
X85643794Y-102717317D01*
X86484136Y-103023364D01*
X87217787Y-103368583D01*
X87835816Y-103746464D01*
X88329289Y-104150498D01*
X88689276Y-104574176D01*
X88906846Y-105010990D01*
X88958262Y-105355295D01*
X88973066Y-105454430D01*
G37*
D14*
%TO.C,Power1*%
X96330000Y-68260000D02*
X98930000Y-68260000D01*
X96330000Y-81080000D02*
X96330000Y-68260000D01*
X96330000Y-81080000D02*
X101530000Y-81080000D01*
X98930000Y-68260000D02*
X98930000Y-70860000D01*
X98930000Y-70860000D02*
X101530000Y-70860000D01*
X100200000Y-68260000D02*
X101530000Y-68260000D01*
X101530000Y-68260000D02*
X101530000Y-69590000D01*
X101530000Y-81080000D02*
X101530000Y-70860000D01*
%TD*%
M02*
